<svg width="44" height="44" viewBox="0 0 44 44" fill="none" xmlns="http://www.w3.org/2000/svg">
<path d="M40.894 23.034C39.2629 22.6949 37.0532 22.5156 34.5039 22.5156C33.4518 22.5156 32.4587 22.5466 31.5391 22.6064V2.36328C31.5391 1.06021 30.4789 0 29.1758 0H2.36328C0.993867 0 0 1.1385 0 2.70703V38.3711C0 39.305 1.03237 40.3906 2.36328 40.3906H25.0078V41.3789C25.0078 42.8359 27.3455 43.3219 28.1138 43.4816C29.7449 43.8207 31.9547 44 34.5039 44C37.0532 44 39.2629 43.8207 40.894 43.4816C41.6623 43.3219 44 42.8359 44 41.3789V25.1367C44 23.6797 41.6623 23.1938 40.894 23.034ZM42.7109 33.2537C42.6976 33.2814 42.4294 33.755 40.4162 34.1416C38.8884 34.4349 36.8439 34.5899 34.5039 34.5899C32.1639 34.5899 30.1195 34.4349 28.5916 34.1416C26.5289 33.7456 26.298 33.2578 26.2969 33.2578V30.7461C26.9715 31.0621 27.7341 31.221 28.1138 31.2999C29.7449 31.639 31.9547 31.8183 34.5039 31.8183C37.0532 31.8183 39.2629 31.639 40.894 31.2999C41.2736 31.221 42.0363 31.0621 42.7109 30.7461V33.2537ZM16.5859 33.3867C16.2299 33.3867 15.9414 33.6752 15.9414 34.0312V35.6641H6.14453C5.8086 35.6641 5.58594 35.3889 5.58594 35.2773V28.875H15.9414V31.0234C15.9414 31.3795 16.2299 31.668 16.5859 31.668C16.942 31.668 17.2305 31.3795 17.2305 31.0234V28.875H25.0078V35.6641H17.2305V34.0312C17.2305 33.6752 16.942 33.3867 16.5859 33.3867ZM27.5859 23.1517C26.5977 23.3941 25.0078 23.935 25.0078 25.1367V27.5859H17.2305V20.7969H27.0273C27.3353 20.7969 27.5859 21.0475 27.5859 21.3555V23.1517ZM15.9414 27.5859H5.58594V21.5273C5.58594 21.0904 5.81041 20.7969 6.14453 20.7969H15.9414V27.5859ZM42.7109 29.1931C42.6976 29.2208 42.4294 29.6945 40.4162 30.081C38.8884 30.3744 36.8439 30.5294 34.5039 30.5294C32.1639 30.5294 30.1195 30.3744 28.5916 30.081C26.5289 29.685 26.298 29.1973 26.2969 29.1973V26.6856C26.9715 27.0016 27.7341 27.1605 28.1138 27.2394C29.7449 27.5785 31.9547 27.7578 34.5039 27.7578C37.0532 27.7578 39.2629 27.5785 40.894 27.2394C41.2736 27.1605 42.0363 27.0016 42.7109 26.6857V29.1931ZM40.4162 24.253C42.3603 24.6263 42.6772 25.081 42.7088 25.1367C42.6772 25.1924 42.3603 25.6472 40.4162 26.0204C38.8884 26.3137 36.8439 26.4688 34.5039 26.4688C32.1639 26.4688 30.1195 26.3137 28.5916 26.0204C26.6475 25.6472 26.3306 25.1924 26.299 25.1367C26.3306 25.081 26.6475 24.6263 28.5916 24.253C30.1195 23.9597 32.1639 23.8047 34.5039 23.8047C36.8439 23.8047 38.8884 23.9597 40.4162 24.253ZM2.36328 39.1016C1.74264 39.1016 1.28906 38.5889 1.28906 38.3711V17.3594H22.5156C22.8717 17.3594 23.1602 17.0709 23.1602 16.7148C23.1602 16.3588 22.8717 16.0703 22.5156 16.0703H1.28906V2.70703C1.28906 1.84568 1.71067 1.28906 2.36328 1.28906H29.1758C29.7681 1.28906 30.25 1.77091 30.25 2.36328V16.0703H25.5234C25.1674 16.0703 24.8789 16.3588 24.8789 16.7148C24.8789 17.0709 25.1674 17.3594 25.5234 17.3594H30.25V22.714C29.7627 22.7648 29.3037 22.8252 28.875 22.8947V21.3555C28.875 20.3367 28.0461 19.5078 27.0273 19.5078H6.14453C5.0912 19.5078 4.29688 20.376 4.29688 21.5273V35.2773C4.29688 36.1701 5.16029 36.9531 6.14453 36.9531H25.0078V39.1016H2.36328ZM40.4162 42.2626C38.8884 42.5559 36.8439 42.7109 34.5039 42.7109C32.1639 42.7109 30.1195 42.5559 28.5916 42.2626C26.5289 41.8667 26.298 41.3789 26.2969 41.3789V38.8672C26.9715 39.1832 27.7341 39.3421 28.1138 39.421C29.7449 39.7601 31.9547 39.9394 34.5039 39.9394C35.7322 39.9394 36.8957 39.8968 37.962 39.8128C38.3169 39.7849 38.5819 39.4745 38.554 39.1197C38.526 38.7649 38.2149 38.4997 37.8609 38.5278C36.8281 38.6091 35.6987 38.6503 34.5039 38.6503C32.1639 38.6503 30.1195 38.4953 28.5916 38.202C26.5289 37.8061 26.298 37.3184 26.2969 37.3184V34.8067C26.9715 35.1227 27.7341 35.2816 28.1138 35.3604C29.7449 35.6996 31.9547 35.8788 34.5039 35.8788C37.0532 35.8788 39.2629 35.6996 40.894 35.3604C41.2736 35.2816 42.0363 35.1227 42.7109 34.8067V37.3141C42.6977 37.3416 42.4603 37.7612 40.7544 38.1329C40.4066 38.2087 40.1861 38.5521 40.2619 38.8999C40.3361 39.2501 40.6899 39.4691 41.0289 39.3924C41.3816 39.3155 42.0798 39.1629 42.7109 38.8677V41.3747C42.6976 41.4025 42.4294 41.8761 40.4162 42.2626Z" fill="#1FA783"/>
<path d="M28.9609 12.0742V5.28516C28.9609 4.26637 28.1321 3.4375 27.1133 3.4375H12.8906C12.5346 3.4375 12.2461 3.72599 12.2461 4.08203C12.2461 4.43807 12.5346 4.72656 12.8906 4.72656H27.1133C27.4213 4.72656 27.6719 4.97716 27.6719 5.28516V12.0742C27.6719 12.3822 27.4213 12.6328 27.1133 12.6328H6.14453C5.83653 12.6328 5.58594 12.3822 5.58594 12.0742V5.28516C5.58594 4.97716 5.83653 4.72656 6.14453 4.72656H9.88281C10.2389 4.72656 10.5273 4.43807 10.5273 4.08203C10.5273 3.72599 10.2389 3.4375 9.88281 3.4375H6.14453C5.12574 3.4375 4.29688 4.26637 4.29688 5.28516V12.0742C4.29688 13.093 5.12574 13.9219 6.14453 13.9219H27.1133C28.1321 13.9219 28.9609 13.093 28.9609 12.0742Z" fill="#1FA783"/>
<path d="M13.5352 31.625H8.89453C8.53849 31.625 8.25 31.9135 8.25 32.2695C8.25 32.6256 8.53849 32.9141 8.89453 32.9141H13.5352C13.8912 32.9141 14.1797 32.6256 14.1797 32.2695C14.1797 31.9135 13.8912 31.625 13.5352 31.625Z" fill="#1FA783"/>
<path d="M9.32422 24.8359H10.5703V26.082C10.5703 26.4381 10.8588 26.7266 11.2148 26.7266C11.5709 26.7266 11.8594 26.4381 11.8594 26.082V24.8359H13.1055C13.4615 24.8359 13.75 24.5474 13.75 24.1914C13.75 23.8354 13.4615 23.5469 13.1055 23.5469H11.8594V22.3008C11.8594 21.9447 11.5709 21.6562 11.2148 21.6562C10.8588 21.6562 10.5703 21.9447 10.5703 22.3008V23.5469H9.32422C8.96818 23.5469 8.67969 23.8354 8.67969 24.1914C8.67969 24.5474 8.96818 24.8359 9.32422 24.8359Z" fill="#1FA783"/>
<path d="M23.7917 22.3987C23.5399 22.1471 23.1318 22.1471 22.8801 22.3987L21.999 23.2798L21.1179 22.3987C20.8661 22.1471 20.4581 22.1471 20.2064 22.3987C19.9547 22.6505 19.9547 23.0585 20.2064 23.3102L21.0875 24.1913L20.2064 25.0724C19.9547 25.3242 19.9547 25.7323 20.2064 25.984C20.4582 26.2356 20.8661 26.2356 21.1179 25.984L21.999 25.1029L22.8801 25.984C23.1319 26.2356 23.5399 26.2356 23.7917 25.984C24.0434 25.7322 24.0434 25.3242 23.7917 25.0724L22.9106 24.1913L23.7917 23.3102C24.0434 23.0584 24.0434 22.6504 23.7917 22.3987Z" fill="#1FA783"/>
<path d="M20.5508 34.3876C20.7157 34.3876 20.8807 34.3247 21.0066 34.1989L23.9284 31.277C24.1802 31.0252 24.1802 30.6172 23.9284 30.3655C23.6766 30.1139 23.2686 30.1139 23.0169 30.3655L20.095 33.2873C19.8433 33.5391 19.8433 33.9472 20.095 34.1989C20.2209 34.3247 20.3859 34.3876 20.5508 34.3876Z" fill="#1FA783"/>
<path d="M20.7539 31.2812C21.1099 31.2812 21.3984 30.9927 21.3984 30.6367C21.3984 30.2808 21.1099 29.9922 20.7539 29.9922C20.3979 29.9922 20.1094 30.2808 20.1094 30.6367C20.1094 30.9927 20.3979 31.2812 20.7539 31.2812Z" fill="#1FA783"/>
<path d="M23.332 34.5469C23.688 34.5469 23.9766 34.2583 23.9766 33.9023C23.9766 33.5464 23.688 33.2578 23.332 33.2578C22.9761 33.2578 22.6875 33.5464 22.6875 33.9023C22.6875 34.2583 22.9761 34.5469 23.332 34.5469Z" fill="#1FA783"/>
<path d="M24.9648 11.4297C25.7941 11.4297 26.4688 10.755 26.4688 9.92578V7.43359C26.4688 6.60438 25.7941 5.92969 24.9648 5.92969H23.7617C22.9325 5.92969 22.2578 6.60438 22.2578 7.43359V9.92578C22.2578 10.755 22.9325 11.4297 23.7617 11.4297H24.9648ZM23.5469 9.92578V7.43359C23.5469 7.31509 23.6432 7.21875 23.7617 7.21875H24.9648C25.0834 7.21875 25.1797 7.31509 25.1797 7.43359V9.92578C25.1797 10.0443 25.0834 10.1406 24.9648 10.1406H23.7617C23.6432 10.1406 23.5469 10.0443 23.5469 9.92578Z" fill="#1FA783"/>
</svg>
