<svg width="44" height="44" viewBox="0 0 44 44" fill="none" xmlns="http://www.w3.org/2000/svg">
<path d="M3.4375 17.875H22.6875C22.8698 17.875 23.0447 17.8026 23.1736 17.6736C23.3026 17.5447 23.375 17.3698 23.375 17.1875V10.3125C23.375 10.1302 23.3026 9.9553 23.1736 9.82636C23.0447 9.69743 22.8698 9.625 22.6875 9.625H3.4375C3.25516 9.625 3.0803 9.69743 2.95136 9.82636C2.82243 9.9553 2.75 10.1302 2.75 10.3125V17.1875C2.75 17.3698 2.82243 17.5447 2.95136 17.6736C3.0803 17.8026 3.25516 17.875 3.4375 17.875ZM4.125 11H22V16.5H4.125V11Z" fill="#1FA783"/>
<path d="M15.125 21.3125H11C10.8177 21.3125 10.6428 21.3849 10.5139 21.5139C10.3849 21.6428 10.3125 21.8177 10.3125 22V26.125C10.3125 26.3073 10.3849 26.4822 10.5139 26.6111C10.6428 26.7401 10.8177 26.8125 11 26.8125H15.125C15.3073 26.8125 15.4822 26.7401 15.6111 26.6111C15.7401 26.4822 15.8125 26.3073 15.8125 26.125V22C15.8125 21.8177 15.7401 21.6428 15.6111 21.5139C15.4822 21.3849 15.3073 21.3125 15.125 21.3125ZM14.4375 25.4375H11.6875V22.6875H14.4375V25.4375Z" fill="#1FA783"/>
<path d="M7.5625 21.3125H3.4375C3.25516 21.3125 3.0803 21.3849 2.95136 21.5139C2.82243 21.6428 2.75 21.8177 2.75 22V26.125C2.75 26.3073 2.82243 26.4822 2.95136 26.6111C3.0803 26.7401 3.25516 26.8125 3.4375 26.8125H7.5625C7.74484 26.8125 7.9197 26.7401 8.04864 26.6111C8.17757 26.4822 8.25 26.3073 8.25 26.125V22C8.25 21.8177 8.17757 21.6428 8.04864 21.5139C7.9197 21.3849 7.74484 21.3125 7.5625 21.3125ZM6.875 25.4375H4.125V22.6875H6.875V25.4375Z" fill="#1FA783"/>
<path d="M22.6875 21.3125H18.5625C18.3802 21.3125 18.2053 21.3849 18.0764 21.5139C17.9474 21.6428 17.875 21.8177 17.875 22V26.125C17.875 26.3073 17.9474 26.4822 18.0764 26.6111C18.2053 26.7401 18.3802 26.8125 18.5625 26.8125H22.6875C22.8698 26.8125 23.0447 26.7401 23.1736 26.6111C23.3026 26.4822 23.375 26.3073 23.375 26.125V22C23.375 21.8177 23.3026 21.6428 23.1736 21.5139C23.0447 21.3849 22.8698 21.3125 22.6875 21.3125ZM22 25.4375H19.25V22.6875H22V25.4375Z" fill="#1FA783"/>
<path d="M15.125 28.1875H11C10.8177 28.1875 10.6428 28.2599 10.5139 28.3889C10.3849 28.5178 10.3125 28.6927 10.3125 28.875V33C10.3125 33.1823 10.3849 33.3572 10.5139 33.4861C10.6428 33.6151 10.8177 33.6875 11 33.6875H15.125C15.3073 33.6875 15.4822 33.6151 15.6111 33.4861C15.7401 33.3572 15.8125 33.1823 15.8125 33V28.875C15.8125 28.6927 15.7401 28.5178 15.6111 28.3889C15.4822 28.2599 15.3073 28.1875 15.125 28.1875ZM14.4375 32.3125H11.6875V29.5625H14.4375V32.3125Z" fill="#1FA783"/>
<path d="M7.5625 28.1875H3.4375C3.25516 28.1875 3.0803 28.2599 2.95136 28.3889C2.82243 28.5178 2.75 28.6927 2.75 28.875V33C2.75 33.1823 2.82243 33.3572 2.95136 33.4861C3.0803 33.6151 3.25516 33.6875 3.4375 33.6875H7.5625C7.74484 33.6875 7.9197 33.6151 8.04864 33.4861C8.17757 33.3572 8.25 33.1823 8.25 33V28.875C8.25 28.6927 8.17757 28.5178 8.04864 28.3889C7.9197 28.2599 7.74484 28.1875 7.5625 28.1875ZM6.875 32.3125H4.125V29.5625H6.875V32.3125Z" fill="#1FA783"/>
<path d="M22.6875 28.1875H18.5625C18.3802 28.1875 18.2053 28.2599 18.0764 28.3889C17.9474 28.5178 17.875 28.6927 17.875 28.875V39.875C17.875 40.0573 17.9474 40.2322 18.0764 40.3611C18.2053 40.4901 18.3802 40.5625 18.5625 40.5625H22.6875C22.8698 40.5625 23.0447 40.4901 23.1736 40.3611C23.3026 40.2322 23.375 40.0573 23.375 39.875V28.875C23.375 28.6927 23.3026 28.5178 23.1736 28.3889C23.0447 28.2599 22.8698 28.1875 22.6875 28.1875ZM22 39.1875H19.25V29.5625H22V39.1875Z" fill="#1FA783"/>
<path d="M15.125 35.0625H11C10.8177 35.0625 10.6428 35.1349 10.5139 35.2639C10.3849 35.3928 10.3125 35.5677 10.3125 35.75V39.875C10.3125 40.0573 10.3849 40.2322 10.5139 40.3611C10.6428 40.4901 10.8177 40.5625 11 40.5625H15.125C15.3073 40.5625 15.4822 40.4901 15.6111 40.3611C15.7401 40.2322 15.8125 40.0573 15.8125 39.875V35.75C15.8125 35.5677 15.7401 35.3928 15.6111 35.2639C15.4822 35.1349 15.3073 35.0625 15.125 35.0625ZM14.4375 39.1875H11.6875V36.4375H14.4375V39.1875Z" fill="#1FA783"/>
<path d="M7.5625 35.0625H3.4375C3.25516 35.0625 3.0803 35.1349 2.95136 35.2639C2.82243 35.3928 2.75 35.5677 2.75 35.75V39.875C2.75 40.0573 2.82243 40.2322 2.95136 40.3611C3.0803 40.4901 3.25516 40.5625 3.4375 40.5625H7.5625C7.74484 40.5625 7.9197 40.4901 8.04864 40.3611C8.17757 40.2322 8.25 40.0573 8.25 39.875V35.75C8.25 35.5677 8.17757 35.3928 8.04864 35.2639C7.9197 35.1349 7.74484 35.0625 7.5625 35.0625ZM6.875 39.1875H4.125V36.4375H6.875V39.1875Z" fill="#1FA783"/>
<path d="M42.9902 6.23219C42.8317 6.00602 42.621 5.82139 42.376 5.69394C42.1309 5.56648 41.8588 5.49996 41.5826 5.5H38.5V4.46875C38.4995 4.01305 38.3183 3.57614 37.9961 3.25391C37.6739 2.93168 37.2369 2.75045 36.7812 2.75H21.597L19.7364 0.888594C19.6073 0.759759 19.4324 0.687432 19.25 0.6875H11.3438C10.888 0.687955 10.4511 0.869183 10.1289 1.19141C9.80668 1.51364 9.62545 1.95055 9.625 2.40625V7.5625H3.09375C2.45579 7.56321 1.84416 7.81695 1.39305 8.26805C0.941947 8.71916 0.688205 9.33079 0.6875 9.96875V40.9062C0.688205 41.5442 0.941947 42.1558 1.39305 42.6069C1.84416 43.0581 2.45579 43.3118 3.09375 43.3125H23.0312C23.6692 43.3118 24.2808 43.0581 24.7319 42.6069C25.1831 42.1558 25.4368 41.5442 25.4375 40.9062V26.125H37.0898C37.4425 26.1244 37.7866 26.0156 38.0756 25.8132C38.3645 25.6108 38.5844 25.3246 38.7054 24.9932C38.7123 24.9734 38.7191 24.9528 38.7243 24.9322L43.2102 7.77133C43.2969 7.5155 43.3221 7.24289 43.2839 6.97551C43.2456 6.70814 43.1451 6.4535 42.9902 6.23219ZM11 2.40625C11 2.31508 11.0362 2.22765 11.1007 2.16318C11.1651 2.09872 11.2526 2.0625 11.3438 2.0625H18.9655L20.8261 3.92391C20.9552 4.05274 21.1301 4.12507 21.3125 4.125H36.7812C36.8724 4.125 36.9599 4.16122 37.0243 4.22568C37.0888 4.29015 37.125 4.37758 37.125 4.46875V5.5H16.5352C16.1825 5.50056 15.8384 5.6094 15.5494 5.81181C15.2605 6.01421 15.0407 6.30044 14.9196 6.6318C14.9136 6.64727 14.9084 6.66359 14.9041 6.67906L14.6549 7.5625H11V2.40625ZM24.0625 40.9062C24.0623 41.1797 23.9536 41.4419 23.7602 41.6352C23.5669 41.8286 23.3047 41.9373 23.0312 41.9375H3.09375C2.82032 41.9373 2.55815 41.8286 2.3648 41.6352C2.17145 41.4419 2.06273 41.1797 2.0625 40.9062V19.9375H24.0625V40.9062ZM24.0625 18.5625H2.0625V9.96875C2.06273 9.69532 2.17145 9.43315 2.3648 9.2398C2.55815 9.04645 2.82032 8.93773 3.09375 8.9375H23.0312C23.3047 8.93773 23.5669 9.04645 23.7602 9.2398C23.9536 9.43315 24.0623 9.69532 24.0625 9.96875V18.5625ZM41.9057 7.33648C41.8988 7.35625 41.892 7.37687 41.8868 7.3975L37.4043 24.5455C37.3772 24.6063 37.3331 24.658 37.2773 24.6943C37.2215 24.7306 37.1563 24.7499 37.0898 24.75H25.4375V9.96875C25.4368 9.33079 25.1831 8.71916 24.7319 8.26805C24.2808 7.81695 23.6692 7.56321 23.0312 7.5625H16.0832L16.219 7.08383C16.2455 7.0219 16.2896 6.9691 16.3458 6.93198C16.402 6.89486 16.4679 6.87505 16.5352 6.875H41.5826C41.6379 6.87485 41.6925 6.88809 41.7416 6.91357C41.7907 6.93906 41.8329 6.97604 41.8646 7.02137C41.8964 7.06669 41.9167 7.11902 41.9238 7.17389C41.931 7.22876 41.9248 7.28454 41.9057 7.33648Z" fill="#1FA783"/>
<path d="M37.8125 28.1875H28.1875C28.0052 28.1875 27.8303 28.2599 27.7014 28.3889C27.5724 28.5178 27.5 28.6927 27.5 28.875V41.25C27.5 41.4323 27.5724 41.6072 27.7014 41.7361C27.8303 41.8651 28.0052 41.9375 28.1875 41.9375H37.8125C37.9948 41.9375 38.1697 41.8651 38.2986 41.7361C38.4276 41.6072 38.5 41.4323 38.5 41.25V28.875C38.5 28.6927 38.4276 28.5178 38.2986 28.3889C38.1697 28.2599 37.9948 28.1875 37.8125 28.1875ZM37.125 40.5625H28.875V29.5625H37.125V40.5625Z" fill="#1FA783"/>
<path d="M30.25 31.625H35.75C35.9323 31.625 36.1072 31.5526 36.2361 31.4236C36.3651 31.2947 36.4375 31.1198 36.4375 30.9375C36.4375 30.7552 36.3651 30.5803 36.2361 30.4514C36.1072 30.3224 35.9323 30.25 35.75 30.25H30.25C30.0677 30.25 29.8928 30.3224 29.7639 30.4514C29.6349 30.5803 29.5625 30.7552 29.5625 30.9375C29.5625 31.1198 29.6349 31.2947 29.7639 31.4236C29.8928 31.5526 30.0677 31.625 30.25 31.625Z" fill="#1FA783"/>
<path d="M30.25 33.6875H35.75C35.9323 33.6875 36.1072 33.6151 36.2361 33.4861C36.3651 33.3572 36.4375 33.1823 36.4375 33C36.4375 32.8177 36.3651 32.6428 36.2361 32.5139C36.1072 32.3849 35.9323 32.3125 35.75 32.3125H30.25C30.0677 32.3125 29.8928 32.3849 29.7639 32.5139C29.6349 32.6428 29.5625 32.8177 29.5625 33C29.5625 33.1823 29.6349 33.3572 29.7639 33.4861C29.8928 33.6151 30.0677 33.6875 30.25 33.6875Z" fill="#1FA783"/>
<path d="M30.25 35.75H35.75C35.9323 35.75 36.1072 35.6776 36.2361 35.5486C36.3651 35.4197 36.4375 35.2448 36.4375 35.0625C36.4375 34.8802 36.3651 34.7053 36.2361 34.5764C36.1072 34.4474 35.9323 34.375 35.75 34.375H30.25C30.0677 34.375 29.8928 34.4474 29.7639 34.5764C29.6349 34.7053 29.5625 34.8802 29.5625 35.0625C29.5625 35.2448 29.6349 35.4197 29.7639 35.5486C29.8928 35.6776 30.0677 35.75 30.25 35.75Z" fill="#1FA783"/>
<path d="M30.25 37.8125H35.75C35.9323 37.8125 36.1072 37.7401 36.2361 37.6111C36.3651 37.4822 36.4375 37.3073 36.4375 37.125C36.4375 36.9427 36.3651 36.7678 36.2361 36.6389C36.1072 36.5099 35.9323 36.4375 35.75 36.4375H30.25C30.0677 36.4375 29.8928 36.5099 29.7639 36.6389C29.6349 36.7678 29.5625 36.9427 29.5625 37.125C29.5625 37.3073 29.6349 37.4822 29.7639 37.6111C29.8928 37.7401 30.0677 37.8125 30.25 37.8125Z" fill="#1FA783"/>
<path d="M30.25 39.875H32.3125C32.4948 39.875 32.6697 39.8026 32.7986 39.6736C32.9276 39.5447 33 39.3698 33 39.1875C33 39.0052 32.9276 38.8303 32.7986 38.7014C32.6697 38.5724 32.4948 38.5 32.3125 38.5H30.25C30.0677 38.5 29.8928 38.5724 29.7639 38.7014C29.6349 38.8303 29.5625 39.0052 29.5625 39.1875C29.5625 39.3698 29.6349 39.5447 29.7639 39.6736C29.8928 39.8026 30.0677 39.875 30.25 39.875Z" fill="#1FA783"/>
<path d="M35.0625 38.5H34.375C34.1927 38.5 34.0178 38.5724 33.8889 38.7014C33.7599 38.8303 33.6875 39.0052 33.6875 39.1875C33.6875 39.3698 33.7599 39.5447 33.8889 39.6736C34.0178 39.8026 34.1927 39.875 34.375 39.875H35.0625C35.2448 39.875 35.4197 39.8026 35.5486 39.6736C35.6776 39.5447 35.75 39.3698 35.75 39.1875C35.75 39.0052 35.6776 38.8303 35.5486 38.7014C35.4197 38.5724 35.2448 38.5 35.0625 38.5Z" fill="#1FA783"/>
</svg>
