<svg width="44" height="44" viewBox="0 0 44 44" fill="none" xmlns="http://www.w3.org/2000/svg">
<g clip-path="url(#clip0)">
<path d="M40.0633 35.2706L38.2872 34.6539C39.2815 33.8664 39.921 32.6498 39.921 31.2859V29.9841C39.921 27.6154 37.9938 25.6882 35.6251 25.6882C33.2565 25.6882 31.3293 27.6154 31.3293 29.9841V31.2859C31.3293 32.6498 31.9691 33.8664 32.9634 34.6539L31.1869 35.2706C30.0476 35.6664 29.0898 36.3922 28.404 37.3177H23.6056V35.424C23.6056 32.9315 22.0235 30.7075 19.6689 29.8901L17.8925 29.2734C18.8868 28.4859 19.5266 27.2693 19.5266 25.9054V24.6036C19.5266 22.2346 17.5994 20.3077 15.2307 20.3077C12.8621 20.3077 10.9349 22.235 10.9349 24.6036V25.9054C10.9349 27.2693 11.5747 28.4859 12.5687 29.2734L10.7925 29.8901C8.43799 30.7075 6.85587 32.9315 6.85587 35.424V37.3177H0.650909C0.291382 37.3177 0 37.609 0 37.9686V43.3491C0 43.7086 0.291382 44 0.650909 44H27.7279C27.7571 44 27.786 43.9973 27.8145 43.9936C27.8431 43.9973 27.8719 44 27.9015 44H43.3491C43.7086 44 44 43.7086 44 43.3491V40.8045C44 38.3123 42.4182 36.0883 40.0633 35.2706ZM32.6311 29.9841C32.6311 28.3332 33.9742 26.9901 35.6251 26.9901C37.2761 26.9901 38.6192 28.3332 38.6192 29.9841V31.2859C38.6192 32.9369 37.2761 34.28 35.6251 34.28C33.9742 34.28 32.6311 32.9369 32.6311 31.2859V29.9841ZM12.2367 24.6036C12.2367 22.9527 13.5798 21.6096 15.2307 21.6096C16.8817 21.6096 18.2248 22.9527 18.2248 24.6036V25.9054C18.2248 27.5564 16.8817 28.8995 15.2307 28.8995C13.5798 28.8995 12.2367 27.5564 12.2367 25.9054V24.6036ZM16.5963 30.2013L17.2288 30.4208L15.2307 33.8875L13.2327 30.4208L13.8651 30.2013H16.5963ZM8.15768 35.424C8.15768 33.4854 9.38834 31.7556 11.2195 31.1198L11.9809 30.8556L14.6668 35.5163C14.7829 35.7181 14.9981 35.8423 15.2307 35.8423C15.4634 35.8423 15.6786 35.7181 15.7947 35.5163L18.4806 30.8556L19.2419 31.1198C21.0732 31.7556 22.3035 33.4854 22.3035 35.424V37.3177H8.15768V35.424ZM1.30182 38.6195H27.6746C27.4 39.3006 27.2506 40.0398 27.2506 40.8045V42.6982H1.30182V38.6195ZM42.6982 42.6982H28.5524V40.8045C28.5524 38.8659 29.7827 37.1364 31.6139 36.5002L34.2595 35.5818H36.9907L39.6363 36.5002C41.4679 37.1364 42.6982 38.8659 42.6982 40.8045V42.6982Z" fill="white"/>
<path d="M39.8777 4.68628H33.2659C32.9063 4.68628 32.615 4.978 32.615 5.33719C32.615 5.69672 32.9063 5.9881 33.2659 5.9881H39.8777C41.433 5.9881 42.6982 7.25333 42.6982 8.80893V17.8344C42.6982 19.3896 41.433 20.6549 39.8777 20.6549H30.9388C30.5793 20.6549 30.2879 20.9463 30.2879 21.3058V24.0739L27.0599 20.8456C26.9377 20.7234 26.7722 20.6549 26.5997 20.6549H21.3058C19.7505 20.6549 18.485 19.3896 18.485 17.8344V8.80859C18.485 7.25333 19.7502 5.9881 21.3058 5.9881H30.2228C30.5823 5.9881 30.8737 5.69672 30.8737 5.33719C30.8737 4.97766 30.5823 4.68628 30.2228 4.68628H26.8165V4.12231C26.8165 1.84933 24.9672 0 22.6942 0H4.12231C1.84933 0 0 1.84933 0 4.12231V5.56143C0 5.92096 0.291382 6.21234 0.650909 6.21234C1.01044 6.21234 1.30182 5.92096 1.30182 5.56143V4.12231C1.30182 2.56705 2.56705 1.30182 4.12231 1.30182H22.6942C24.2495 1.30182 25.5147 2.56705 25.5147 4.12231V4.68628H21.3058C19.0328 4.68628 17.1835 6.53561 17.1835 8.80859V15.9683H10.3709C10.0114 15.9683 9.72 16.2596 9.72 16.6192V19.3873L6.49197 16.1589C6.36978 16.0367 6.20428 15.9683 6.03174 15.9683H4.12231C2.56705 15.9683 1.30182 14.703 1.30182 13.1478V8.58804C1.30182 8.22852 1.01044 7.93713 0.650909 7.93713C0.291382 7.93713 0 8.22852 0 8.58804V13.1478C0 15.4211 1.84933 17.2701 4.12231 17.2701H5.76184L9.91068 21.4189C10.0352 21.5435 10.2017 21.6096 10.3709 21.6093C10.4548 21.6093 10.5394 21.5931 10.62 21.5599C10.863 21.4592 11.0218 21.2219 11.0218 20.9587V17.2701H17.1835V17.8344C17.1835 20.1074 19.0328 21.9564 21.3058 21.9564H26.3301L30.4786 26.1052C30.6031 26.2297 30.7697 26.2959 30.9388 26.2959C31.0228 26.2959 31.1074 26.2798 31.1879 26.2462C31.431 26.1455 31.5898 25.9081 31.5898 25.645V21.9564H39.8777C42.1507 21.9564 44 20.1074 44 17.8344V8.80859C44 6.53561 42.1507 4.68628 39.8777 4.68628Z" fill="white"/>
</g>
<defs>
<clipPath id="clip0">
<rect width="44" height="44" fill="white"/>
</clipPath>
</defs>
</svg>
