<svg width="44" height="44" viewBox="0 0 44 44" fill="none" xmlns="http://www.w3.org/2000/svg">
<g clip-path="url(#clip0)">
<path d="M35.8924 17.5861H19.5014C20.2594 16.7148 20.7199 15.5784 20.7199 14.3356C20.7199 11.6008 18.4951 9.37598 15.7603 9.37598C13.0255 9.37598 10.8006 11.6008 10.8006 14.3356C10.8006 15.5784 11.2612 16.7148 12.019 17.5861H8.10633C5.74194 17.5861 3.81836 19.5097 3.81836 21.8741V26.9338C3.81836 27.4074 4.2023 27.7914 4.67595 27.7914C5.1496 27.7914 5.53355 27.4074 5.53355 26.9338V21.8741C5.53355 20.4554 6.6877 19.3013 8.10633 19.3013H32.119C33.5376 19.3013 34.6918 20.4554 34.6918 21.8741V26.5051H25.7728C23.4084 26.5051 21.4848 28.4287 21.4848 30.793C21.4848 33.1574 23.4084 35.081 25.7728 35.081H34.6918V39.712C34.6918 41.1307 33.5376 42.2848 32.119 42.2848H8.10633C6.6877 42.2848 5.53355 41.1307 5.53355 39.712V34.6455C5.53355 34.1719 5.1496 33.7879 4.67595 33.7879C4.2023 33.7879 3.81836 34.1719 3.81836 34.6455V39.712C3.81836 42.0764 5.74194 44 8.10633 44H35.8924C38.2568 44 40.1804 42.0764 40.1804 39.712V21.8741C40.1804 19.5097 38.2568 17.5861 35.8924 17.5861ZM15.7603 11.0913C17.5493 11.0913 19.0047 12.5467 19.0047 14.3357C19.0047 16.1247 17.5493 17.5802 15.7603 17.5802C13.9713 17.5802 12.5158 16.1247 12.5158 14.3357C12.5158 12.5467 13.9713 11.0913 15.7603 11.0913ZM35.547 19.3013H35.8924C37.311 19.3013 38.4652 20.4554 38.4652 21.8741V26.5051H36.407V21.8741C36.407 20.9095 36.0866 20.0185 35.547 19.3013ZM23.2 30.793C23.2 29.3744 24.3541 28.2203 25.7728 28.2203H38.4652V33.3658H25.7728C24.3541 33.3658 23.2 32.2117 23.2 30.793ZM35.8924 42.2848H35.547C36.0866 41.5676 36.407 40.6767 36.407 39.712V35.081H38.4652V39.712C38.4652 41.1307 37.311 42.2848 35.8924 42.2848Z" fill="#1FA783"/>
<path d="M25.5529 29.9353C25.3265 29.9353 25.1052 30.0271 24.9457 30.1866C24.7862 30.3461 24.6953 30.5674 24.6953 30.7929C24.6953 31.0184 24.7862 31.2397 24.9457 31.3992C25.1061 31.5587 25.3265 31.6505 25.5529 31.6505C25.7785 31.6505 25.9989 31.5587 26.1592 31.3992C26.3187 31.2397 26.4105 31.0184 26.4105 30.7929C26.4105 30.5674 26.3187 30.3461 26.1592 30.1866C25.9997 30.027 25.7785 29.9353 25.5529 29.9353Z" fill="#1FA783"/>
<path d="M28.2389 11.8059C30.9737 11.8059 33.1986 9.58102 33.1986 6.84624C33.1986 4.11154 30.9737 1.8866 28.2389 1.8866C25.5042 1.8866 23.2793 4.11145 23.2793 6.84624C23.2793 9.58102 25.5042 11.8059 28.2389 11.8059ZM28.2389 3.60187C30.0279 3.60187 31.4834 5.05729 31.4834 6.84632C31.4834 8.63535 30.028 10.0908 28.2389 10.0908C26.4499 10.0908 24.9945 8.63535 24.9945 6.84632C24.9945 5.05729 26.4499 3.60187 28.2389 3.60187Z" fill="#1FA783"/>
<path d="M19.8615 8.45425C20.3352 8.45425 20.7191 8.07031 20.7191 7.59666V0.857594C20.7191 0.383945 20.3352 0 19.8615 0C19.3879 0 19.0039 0.383945 19.0039 0.857594V7.59666C19.0039 8.07031 19.3879 8.45425 19.8615 8.45425Z" fill="#1FA783"/>
<path d="M15.7443 5.4886C16.218 5.4886 16.6019 5.10466 16.6019 4.63101V0.857594C16.6019 0.383945 16.218 0 15.7443 0C15.2707 0 14.8867 0.383945 14.8867 0.857594V4.63101C14.8867 5.10466 15.2707 5.4886 15.7443 5.4886Z" fill="#1FA783"/>
<path d="M4.67595 31.6505C4.9015 31.6505 5.12276 31.5587 5.28227 31.3992C5.44179 31.2397 5.53355 31.0184 5.53355 30.7929C5.53355 30.5674 5.44179 30.3461 5.28227 30.1866C5.12276 30.0271 4.90236 29.9353 4.67595 29.9353C4.45041 29.9353 4.22915 30.0271 4.06963 30.1866C3.91012 30.3461 3.81836 30.5674 3.81836 30.7929C3.81836 31.0184 3.91012 31.2397 4.06963 31.3992C4.22915 31.5587 4.45032 31.6505 4.67595 31.6505Z" fill="#1FA783"/>
</g>
<defs>
<clipPath id="clip0">
<rect width="44" height="44" fill="white"/>
</clipPath>
</defs>
</svg>
