<svg width="44" height="44" viewBox="0 0 44 44" fill="none" xmlns="http://www.w3.org/2000/svg">
<path d="M25.1232 10.3091C25.1178 10.3091 25.1128 10.3091 25.1078 10.3091C24.6331 10.3008 24.2551 9.909 24.2638 9.43466C24.2907 7.918 24.9496 6.44061 26.1199 5.27542C27.2904 4.10956 28.7715 3.45563 30.2902 3.43414C30.3194 3.43381 30.3503 3.43347 30.3805 3.43347C30.8552 3.43347 31.2399 3.81851 31.2399 4.29285C31.2399 4.76752 30.8552 5.15222 30.3805 5.15222C30.3587 5.15222 30.3365 5.15256 30.315 5.15289C29.2442 5.168 28.1854 5.64401 27.3327 6.49298C26.4807 7.34161 26.001 8.39703 25.9822 9.46521C25.9738 9.93451 25.5908 10.3091 25.1232 10.3091Z" fill="#1FA783"/>
<path d="M30.3817 16.2472C30.1024 16.2472 29.8406 16.1112 29.6794 15.8829L27.8506 13.2904C27.577 12.9026 27.6696 12.3662 28.0574 12.0926C28.4454 11.819 28.9815 11.9117 29.2551 12.2997L30.3817 13.897L31.508 12.2997C31.7815 11.9117 32.318 11.819 32.7057 12.0926C33.0934 12.3662 33.1861 12.9023 32.9128 13.2904L31.084 15.8829C30.9228 16.1112 30.661 16.2472 30.3817 16.2472Z" fill="#1FA783"/>
<path d="M43.0911 44C43.0351 44 42.9793 43.9939 42.9236 43.9829C42.8686 43.9725 42.8142 43.9553 42.7628 43.9339C42.7111 43.9124 42.6614 43.8858 42.6141 43.8546C42.5678 43.8237 42.5231 43.7878 42.4835 43.7482C42.4439 43.7086 42.408 43.665 42.3768 43.6176C42.3459 43.5713 42.3194 43.5213 42.2979 43.4689C42.2764 43.4172 42.2599 43.3632 42.2489 43.3081C42.2378 43.2531 42.2324 43.1963 42.2324 43.1406C42.2324 43.0849 42.2378 43.0282 42.2489 42.9731C42.2599 42.918 42.2764 42.864 42.2979 42.8123C42.3194 42.7599 42.3459 42.7099 42.3768 42.6636C42.408 42.6163 42.4439 42.5726 42.4835 42.533C42.5231 42.4934 42.5678 42.4575 42.6141 42.4266C42.6614 42.3954 42.7111 42.3689 42.7628 42.3474C42.8142 42.3259 42.8686 42.3088 42.9236 42.2984C43.0344 42.2762 43.1485 42.2762 43.2596 42.2984C43.3144 42.3088 43.3687 42.3259 43.4201 42.3474C43.4718 42.3689 43.5215 42.3954 43.5688 42.4266C43.6151 42.4575 43.6601 42.4934 43.6994 42.533C43.739 42.5726 43.7753 42.6163 43.8062 42.6636C43.837 42.7099 43.8636 42.7599 43.885 42.8123C43.9065 42.864 43.923 42.918 43.9341 42.9731C43.9451 43.0282 43.9505 43.0849 43.9505 43.1406C43.9505 43.1963 43.9451 43.2531 43.9341 43.3081C43.923 43.3632 43.9065 43.4172 43.885 43.4689C43.8636 43.5213 43.837 43.5713 43.8062 43.6176C43.7753 43.665 43.739 43.7086 43.6994 43.7482C43.6601 43.7878 43.6151 43.8237 43.5688 43.8546C43.5215 43.8858 43.4718 43.9124 43.4201 43.9339C43.3687 43.9553 43.3144 43.9725 43.2596 43.9829C43.2036 43.9939 43.1479 44 43.0911 44Z" fill="#1FA783"/>
<path d="M25.058 17.4779C26.2031 18.248 26.8147 19.2664 27.5459 20.5461V22.8896C27.5459 23.3643 27.9306 23.749 28.4052 23.749H32.3537C32.8283 23.749 33.213 23.3643 33.213 22.8896V20.5508C33.9479 19.2678 34.5619 18.2466 35.7143 17.4691C38.3545 15.688 39.9309 12.7268 39.9309 9.54846C39.9306 4.28345 35.6462 0 30.3795 0C30.3331 0 30.2865 0.000335693 30.2405 0.00100708C27.8258 0.0349121 25.5015 1.04401 23.6958 2.84265C21.8904 4.64096 20.8723 6.96027 20.8297 9.37357C20.7719 12.6298 22.3524 15.6594 25.058 17.4779ZM31.4943 22.0302H29.2646V21.1628H31.4943V22.0302ZM22.5481 9.40411C22.583 7.43964 23.4212 5.54163 24.9087 4.06021C26.3965 2.57846 28.2985 1.74728 30.2657 1.71942C30.3036 1.71909 30.3415 1.71875 30.3795 1.71875C34.6985 1.71875 38.2122 5.23111 38.2122 9.54813C38.2122 12.1544 36.9188 14.5829 34.7529 16.0441C33.3722 16.9757 32.6064 18.1657 31.8669 19.444H28.895C28.1595 18.1691 27.3958 16.9784 26.0168 16.0515C23.7975 14.5597 22.5007 12.0746 22.5481 9.40411Z" fill="#1FA783"/>
<path d="M39.4003 42.2812H33.5472V35.3968H34.5425C34.854 35.3968 35.1411 35.2283 35.2931 34.9561C35.4449 34.6838 35.4375 34.3508 35.2737 34.0859L31.1114 27.3462C30.9546 27.0928 30.678 26.9384 30.3802 26.9384C30.0825 26.9384 29.8055 27.0928 29.6491 27.3462L25.4865 34.0859C25.323 34.3511 25.3156 34.6838 25.4674 34.9561C25.6191 35.2283 25.9061 35.3968 26.2177 35.3968H27.213V42.2812H23.7238V35.3226C23.7238 33.908 22.5727 32.7569 21.1581 32.7569H17.017C16.9878 32.7569 16.9592 32.7586 16.9307 32.7613C16.9277 32.761 16.9243 32.7606 16.9213 32.7603C16.7054 32.6861 16.1562 32.0439 16.0861 30.015C17.7196 28.7981 18.683 27.2257 19.0368 26.5728V26.5724C19.484 25.7466 19.7821 23.5035 19.9486 21.6905C20.7183 21.1248 20.8905 20.445 20.8905 19.9509V16.3989C20.8905 14.3183 20.1725 12.5032 18.8146 11.1497C17.1888 9.52963 14.7265 8.63904 11.8772 8.63904C11.8614 8.63904 11.8456 8.63904 11.8298 8.63904C6.44867 8.6575 2.83325 11.8117 2.83325 16.4875V19.9509C2.83325 20.4262 2.99069 21.0795 3.69296 21.6297C3.85645 23.8339 4.23209 25.7054 4.70172 26.5724C5.05521 27.2257 6.01865 28.7981 7.65247 30.015C7.58231 32.0439 7.03311 32.6861 6.81726 32.7603C6.81424 32.7606 6.81122 32.761 6.80786 32.7613C6.77966 32.7586 6.75079 32.7569 6.72159 32.7569H2.5657C1.15109 32.7569 0 33.908 0 35.3226V43.1406C0 43.6153 0.384705 44 0.859375 44H39.4003C39.875 44 40.2597 43.6153 40.2597 43.1406C40.2597 42.6659 39.875 42.2812 39.4003 42.2812ZM11.8359 10.3578C14.2411 10.3491 16.2925 11.0631 17.6011 12.3672C18.6431 13.4055 19.1714 14.7621 19.1714 16.3989V18.7612C19.0385 18.7713 18.9073 18.8126 18.7891 18.8847C17.7709 19.5071 16.598 19.8361 15.3976 19.8361C11.8762 19.8361 9.75961 18.6024 9.10602 16.169C9.00967 15.8101 8.69345 15.5536 8.32217 15.5338C7.9519 15.514 7.60916 15.7346 7.47488 16.081C6.9267 17.4936 5.87497 18.6914 4.552 19.4269V16.4875C4.552 11.9819 8.47592 10.3695 11.8359 10.3578ZM6.21301 25.754C5.89041 25.1585 5.50269 23.3045 5.37042 20.9382C6.49869 20.3138 7.47119 19.4239 8.19864 18.3634C9.49844 20.4363 11.9863 21.5548 15.3976 21.5548C16.3892 21.5548 17.3664 21.3769 18.2842 21.0338C18.0966 23.3451 17.7629 25.3153 17.5255 25.754C17.2056 26.3445 16.2942 27.8289 14.744 28.8589C14.5043 29.018 14.3603 29.2869 14.3603 29.5746C14.3603 31.7347 14.8188 32.9439 15.3442 33.62C14.9484 33.905 14.4738 34.2551 13.987 34.6328C12.9604 35.429 12.2971 36.0239 11.8627 36.4801C11.4297 36.0239 10.7684 35.4297 9.74551 34.6335C9.26077 34.2561 8.78778 33.9067 8.39368 33.6217C8.91937 32.9459 9.37894 31.7368 9.37894 29.5749C9.37894 29.2872 9.23459 29.0183 8.9949 28.8592C7.444 27.8289 6.53293 26.3445 6.21301 25.754ZM1.71875 42.2812V35.3226C1.71875 34.8557 2.09875 34.4757 2.5657 34.4757H6.62625C7.00491 34.7389 7.83005 35.3216 8.67633 35.9796C10.8164 37.6436 11.0413 38.1952 11.0493 38.217C11.1689 38.5638 11.4948 38.7967 11.8617 38.7967C12.2283 38.7967 12.5546 38.5648 12.6738 38.218C12.6825 38.1955 12.9081 37.6433 15.0548 35.9796C15.9041 35.3213 16.7326 34.7385 17.1116 34.476H21.1581C21.625 34.476 22.005 34.8557 22.005 35.323V42.2812H1.71875ZM28.9317 42.2812V35.3968H29.6612C30.1359 35.3968 30.5206 35.0121 30.5206 34.5374C30.5206 34.0628 30.1359 33.6781 29.6612 33.6781H27.7585L30.3802 29.4332L33.0017 33.6781H32.6878C32.2131 33.6781 31.8284 34.0628 31.8284 34.5374V42.2812H28.9317Z" fill="#1FA783"/>
</svg>
