<svg width="20" height="20" viewBox="0 0 20 20" fill="none" xmlns="http://www.w3.org/2000/svg">
<path fill-rule="evenodd" clip-rule="evenodd" d="M12.707 14.707C12.8944 14.5195 12.9998 14.2652 12.9998 14C12.9998 13.7349 12.8944 13.4806 12.707 13.293L9.41397 10L12.707 6.70704C12.8891 6.51844 12.9899 6.26584 12.9876 6.00364C12.9854 5.74144 12.8802 5.49063 12.6948 5.30522C12.5094 5.11981 12.2586 5.01465 11.9964 5.01237C11.7342 5.01009 11.4816 5.11088 11.293 5.29304L7.29297 9.29304C7.1055 9.48057 7.00018 9.73488 7.00018 10C7.00018 10.2652 7.1055 10.5195 7.29297 10.707L11.293 14.707C11.4805 14.8945 11.7348 14.9998 12 14.9998C12.2651 14.9998 12.5194 14.8945 12.707 14.707Z" fill="#1FA783"/>
</svg>
