<svg width="20" height="20" viewBox="0 0 20 20" fill="none" xmlns="http://www.w3.org/2000/svg">
<path fill-rule="evenodd" clip-rule="evenodd" d="M3.17115 5.172C3.92126 4.42212 4.93849 4.00086 5.99915 4.00086C7.0598 4.00086 8.07703 4.42212 8.82715 5.172L9.99915 6.343L11.1711 5.172C11.5401 4.78996 11.9815 4.48523 12.4695 4.2756C12.9575 4.06596 13.4824 3.95562 14.0135 3.951C14.5447 3.94639 15.0714 4.04759 15.563 4.24872C16.0545 4.44984 16.5012 4.74685 16.8767 5.12242C17.2523 5.49799 17.5493 5.9446 17.7504 6.43619C17.9516 6.92777 18.0528 7.45449 18.0481 7.98561C18.0435 8.51673 17.9332 9.04161 17.7236 9.52962C17.5139 10.0176 17.2092 10.459 16.8271 10.828L9.99915 17.657L3.17115 10.828C2.42126 10.0779 2 9.06066 2 8C2 6.93935 2.42126 5.92211 3.17115 5.172Z" fill="#1FA783"/>
</svg>
