<svg width="38" height="38" viewBox="0 0 38 38" fill="none" xmlns="http://www.w3.org/2000/svg">
<path d="M5 19L8.11111 15.8889M8.11111 15.8889L19 5L29.8889 15.8889M8.11111 15.8889V31.4444C8.11111 31.857 8.275 32.2527 8.56672 32.5444C8.85845 32.8361 9.25411 33 9.66667 33H14.3333M29.8889 15.8889L33 19M29.8889 15.8889V31.4444C29.8889 31.857 29.725 32.2527 29.4333 32.5444C29.1416 32.8361 28.7459 33 28.3333 33H23.6667M14.3333 33C14.7459 33 15.1416 32.8361 15.4333 32.5444C15.725 32.2527 15.8889 31.857 15.8889 31.4444V25.2222C15.8889 24.8097 16.0528 24.414 16.3445 24.1223C16.6362 23.8306 17.0319 23.6667 17.4444 23.6667H20.5556C20.9681 23.6667 21.3638 23.8306 21.6555 24.1223C21.9472 24.414 22.1111 24.8097 22.1111 25.2222V31.4444C22.1111 31.857 22.275 32.2527 22.5667 32.5444C22.8584 32.8361 23.2541 33 23.6667 33M14.3333 33H23.6667" stroke="#0B253C" stroke-width="3" stroke-linecap="round" stroke-linejoin="round"/>
</svg>
