<svg width="20" height="20" viewBox="0 0 20 20" fill="none" xmlns="http://www.w3.org/2000/svg">
<path fill-rule="evenodd" clip-rule="evenodd" d="M5.05051 4.05011C6.36333 2.73729 8.14389 1.99976 10.0005 1.99976C11.8571 1.99976 13.6377 2.73729 14.9505 4.05011C16.2633 5.36293 17.0009 7.1435 17.0009 9.00011C17.0009 10.8567 16.2633 12.6373 14.9505 13.9501L10.0005 18.9001L5.05051 13.9501C4.40042 13.3001 3.88474 12.5284 3.53291 11.6791C3.18108 10.8297 3 9.91943 3 9.00011C3 8.0808 3.18108 7.17049 3.53291 6.32116C3.88474 5.47184 4.40042 4.70013 5.05051 4.05011ZM10.0005 11.0001C10.5309 11.0001 11.0396 10.7894 11.4147 10.4143C11.7898 10.0393 12.0005 9.53055 12.0005 9.00011C12.0005 8.46968 11.7898 7.96097 11.4147 7.5859C11.0396 7.21083 10.5309 7.00011 10.0005 7.00011C9.47007 7.00011 8.96136 7.21083 8.58629 7.5859C8.21122 7.96097 8.0005 8.46968 8.0005 9.00011C8.0005 9.53055 8.21122 10.0393 8.58629 10.4143C8.96136 10.7894 9.47007 11.0001 10.0005 11.0001Z" fill="#1FA783"/>
</svg>
