<svg width="20" height="20" viewBox="0 0 20 20" fill="none" xmlns="http://www.w3.org/2000/svg">
<path d="M17.8906 5.66406H2.10938C1.14012 5.66406 0.351562 6.45262 0.351562 7.42188V14.4531C0.351562 15.4224 1.14012 16.2109 2.10938 16.2109H17.8906C18.8599 16.2109 19.6484 15.4224 19.6484 14.4531V7.42188C19.6484 6.45262 18.8599 5.66406 17.8906 5.66406ZM4.98988 11.8491C4.84008 11.8491 4.58414 11.8502 4.34457 11.8514V13.2029C4.34457 13.5264 4.08223 13.7888 3.75863 13.7888C3.43504 13.7888 3.1727 13.5264 3.1727 13.2029L3.16406 8.75188C3.16355 8.59617 3.22508 8.44664 3.335 8.33633C3.44492 8.22602 3.5943 8.16406 3.75 8.16406H4.98988C6.01941 8.16406 6.85703 8.99063 6.85703 10.0066C6.85703 11.0226 6.01941 11.8491 4.98988 11.8491ZM10.0199 13.6475C9.6709 13.6536 8.79797 13.6569 8.76098 13.6571C8.76023 13.6571 8.75949 13.6571 8.75875 13.6571C8.60414 13.6571 8.45574 13.596 8.34598 13.487C8.23566 13.3775 8.1734 13.2287 8.17281 13.0732C8.17277 13.0576 8.16406 8.75113 8.16406 8.75113C8.16379 8.59555 8.22535 8.44621 8.33527 8.33609C8.4452 8.22598 8.59441 8.16406 8.75 8.16406H9.97383C11.368 8.16406 12.3048 9.26781 12.3048 10.9106C12.3048 12.4733 11.3438 13.6244 10.0199 13.6475ZM16.0242 10.2871C16.3478 10.2871 16.6102 10.5495 16.6102 10.873C16.6102 11.1966 16.3478 11.459 16.0242 11.459H14.9609V13.125C14.9609 13.4486 14.6986 13.7109 14.375 13.7109C14.0514 13.7109 13.7891 13.4486 13.7891 13.125V8.70477C13.7891 8.38117 14.0514 8.11883 14.375 8.11883H16.1665C16.4901 8.11883 16.7525 8.38117 16.7525 8.70477C16.7525 9.02836 16.4901 9.2907 16.1665 9.2907H14.9609V10.2871H16.0242Z" fill="#1FA783"/>
<path d="M9.97399 9.33594H9.33716C9.33806 9.86484 9.34126 11.9732 9.3429 12.4821C9.58673 12.4806 9.84782 12.4784 9.99958 12.4758C10.7826 12.4621 11.1331 11.6798 11.1331 10.9106C11.133 10.5412 11.0495 9.33594 9.97399 9.33594Z" fill="#1FA783"/>
<path d="M4.99008 9.33594H4.33789C4.33859 9.59668 4.33926 9.87406 4.33926 10.0066C4.33926 10.1615 4.34035 10.4301 4.3416 10.6796C4.58207 10.6784 4.83895 10.6773 4.99012 10.6773C5.36699 10.6773 5.68539 10.3702 5.68539 10.0066C5.68539 9.64305 5.36695 9.33594 4.99008 9.33594Z" fill="#1FA783"/>
<path d="M17.2834 4.49219C17.1476 4.11992 16.9366 3.77586 16.6573 3.48125L14.2236 0.914023C13.6729 0.333164 12.8979 0 12.0975 0H4.29688C3.32762 0 2.53906 0.788555 2.53906 1.75781V4.49219H17.2834Z" fill="#1FA783"/>
<path d="M2.53906 17.3828V18.2422C2.53906 19.2114 3.32762 20 4.29688 20H15.7031C16.6724 20 17.4609 19.2114 17.4609 18.2422V17.3828H2.53906Z" fill="#1FA783"/>
</svg>
