<svg width="38" height="38" viewBox="0 0 38 38" fill="none" xmlns="http://www.w3.org/2000/svg">
<path d="M22.6365 16.1046C23.601 15.1044 24.1429 13.7478 24.1429 12.3333C24.1429 10.9188 23.601 9.56229 22.6365 8.5621C21.6721 7.5619 20.364 7 19 7C17.636 7 16.3279 7.5619 15.3635 8.5621C14.399 9.56229 13.8571 10.9188 13.8571 12.3333C13.8571 13.7478 14.399 15.1044 15.3635 16.1046C16.3279 17.1048 17.636 17.6667 19 17.6667C20.364 17.6667 21.6721 17.1048 22.6365 16.1046Z" stroke="#0B253C" stroke-width="3" stroke-linecap="round" stroke-linejoin="round"/>
<path d="M12.636 24.4003C14.3239 22.65 16.6131 21.6667 19 21.6667C21.3869 21.6667 23.6761 22.65 25.364 24.4003C27.0518 26.1507 28 28.5246 28 31H10C10 28.5246 10.9482 26.1507 12.636 24.4003Z" stroke="#0B253C" stroke-width="3" stroke-linecap="round" stroke-linejoin="round"/>
</svg>
