<svg width="10" height="10" viewBox="0 0 10 10" fill="none" xmlns="http://www.w3.org/2000/svg">
<path d="M3.85156 5.55469V9.22852H0.458984V6.32812C0.458984 4.75781 0.646484 3.62109 1.02148 2.91797C1.51367 1.98047 2.29297 1.27148 3.35938 0.791016L4.13281 2.02148C3.48828 2.29102 3.01367 2.69531 2.70898 3.23438C2.4043 3.76172 2.23438 4.53516 2.19922 5.55469H3.85156ZM9.30078 5.55469V9.22852H5.9082V6.32812C5.9082 4.75781 6.0957 3.62109 6.4707 2.91797C6.96289 1.98047 7.74219 1.27148 8.80859 0.791016L9.58203 2.02148C8.9375 2.29102 8.46289 2.69531 8.1582 3.23438C7.85352 3.76172 7.68359 4.53516 7.64844 5.55469H9.30078Z" fill="white"/>
</svg>
