<svg width="44" height="44" viewBox="0 0 44 44" fill="none" xmlns="http://www.w3.org/2000/svg">
<g clip-path="url(#clip0)">
<path d="M26.9525 14.6931H19.9531C19.5972 14.6931 19.3086 14.4046 19.3086 14.0486C19.3086 13.6925 19.5972 13.4041 19.9531 13.4041H26.9525C27.3084 13.4041 27.597 13.6925 27.597 14.0486C27.597 14.4046 27.3085 14.6931 26.9525 14.6931Z" fill="#1FA783"/>
<path d="M33.9519 11.3848H19.9531C19.5972 11.3848 19.3086 11.0963 19.3086 10.7402C19.3086 10.3842 19.5972 10.0957 19.9531 10.0957H33.9519C34.3079 10.0957 34.5964 10.3842 34.5964 10.7402C34.5964 11.0963 34.3079 11.3848 33.9519 11.3848Z" fill="#1FA783"/>
<path d="M26.9525 25.4941H19.9531C19.5972 25.4941 19.3086 25.2056 19.3086 24.8496C19.3086 24.4936 19.5972 24.2051 19.9531 24.2051H26.9525C27.3084 24.2051 27.597 24.4936 27.597 24.8496C27.597 25.2056 27.3085 25.4941 26.9525 25.4941Z" fill="#1FA783"/>
<path d="M33.9519 22.1858H19.9531C19.5972 22.1858 19.3086 21.8973 19.3086 21.5413C19.3086 21.1852 19.5972 20.8967 19.9531 20.8967H33.9519C34.3079 20.8967 34.5964 21.1852 34.5964 21.5413C34.5964 21.8973 34.3079 22.1858 33.9519 22.1858Z" fill="#1FA783"/>
<path d="M26.9525 36.2954H19.9531C19.5972 36.2954 19.3086 36.0069 19.3086 35.6509C19.3086 35.2948 19.5972 35.0063 19.9531 35.0063H26.9525C27.3084 35.0063 27.597 35.2948 27.597 35.6509C27.597 36.0069 27.3085 36.2954 26.9525 36.2954Z" fill="#1FA783"/>
<path d="M33.9519 32.9871H19.9531C19.5972 32.9871 19.3086 32.6986 19.3086 32.3425C19.3086 31.9865 19.5972 31.698 19.9531 31.698H33.9519C34.3079 31.698 34.5964 31.9865 34.5964 32.3425C34.5964 32.6986 34.3079 32.9871 33.9519 32.9871Z" fill="#1FA783"/>
<path d="M27.5757 6.07157H16.4292C15.3698 6.07157 14.5078 5.2097 14.5078 4.15027V1.92139C14.5079 0.861953 15.3698 0 16.4292 0H27.5756C28.635 0 29.497 0.861953 29.497 1.92139V4.15027C29.497 5.2097 28.6351 6.07157 27.5757 6.07157ZM16.4292 1.28906C16.0806 1.28906 15.7969 1.57274 15.7969 1.92139V4.15027C15.7969 4.49891 16.0806 4.78251 16.4292 4.78251H27.5756C27.9242 4.78251 28.2079 4.49883 28.2079 4.15027V1.92139C28.2079 1.57266 27.9242 1.28906 27.5756 1.28906H16.4292Z" fill="#1FA783"/>
<path d="M14.0012 15.5573H11.1367C10.1825 15.5573 9.40625 14.781 9.40625 13.8268V10.9624C9.40625 10.0082 10.1825 9.23193 11.1367 9.23193H14.0012C14.9554 9.23193 15.7317 10.0082 15.7317 10.9624V13.8269C15.7317 14.781 14.9554 15.5573 14.0012 15.5573ZM11.1367 10.521C10.8933 10.521 10.6953 10.719 10.6953 10.9624V13.8269C10.6953 14.0703 10.8933 14.2683 11.1367 14.2683H14.0012C14.2446 14.2683 14.4426 14.0703 14.4426 13.8269V10.9624C14.4426 10.719 14.2446 10.521 14.0012 10.521H11.1367Z" fill="#1FA783"/>
<path d="M14.0012 26.3584H11.1367C10.1825 26.3584 9.40625 25.5821 9.40625 24.628V21.7634C9.40625 20.8092 10.1825 20.033 11.1367 20.033H14.0012C14.9554 20.033 15.7317 20.8092 15.7317 21.7634V24.628C15.7317 25.5821 14.9554 26.3584 14.0012 26.3584ZM11.1367 21.322C10.8933 21.322 10.6953 21.52 10.6953 21.7634V24.628C10.6953 24.8713 10.8933 25.0693 11.1367 25.0693H14.0012C14.2446 25.0693 14.4426 24.8713 14.4426 24.628V21.7634C14.4426 21.52 14.2446 21.322 14.0012 21.322H11.1367Z" fill="#1FA783"/>
<path d="M14.0012 37.1597H11.1367C10.1825 37.1597 9.40625 36.3835 9.40625 35.4292V32.5648C9.40625 31.6105 10.1825 30.8342 11.1367 30.8342H14.0012C14.9554 30.8342 15.7317 31.6105 15.7317 32.5648V35.4292C15.7317 36.3835 14.9554 37.1597 14.0012 37.1597ZM11.1367 32.1234C10.8933 32.1234 10.6953 32.3215 10.6953 32.5648V35.4293C10.6953 35.6727 10.8933 35.8708 11.1367 35.8708H14.0012C14.2446 35.8708 14.4426 35.6727 14.4426 35.4293V32.5648C14.4426 32.3215 14.2446 32.1234 14.0012 32.1234H11.1367Z" fill="#1FA783"/>
<path d="M35.7131 43.9998H8.29024C6.75059 43.9998 5.49805 42.7473 5.49805 41.2076V5.18322C5.49805 3.64365 6.75067 2.39111 8.29024 2.39111H12.1527C12.5087 2.39111 12.7972 2.67961 12.7972 3.03564C12.7972 3.39168 12.5087 3.68018 12.1527 3.68018H8.29024C7.46137 3.68018 6.78711 4.35444 6.78711 5.18322V41.2075C6.78711 42.0364 7.46146 42.7107 8.29024 42.7107H35.7131C36.5419 42.7107 37.2162 42.0363 37.2162 41.2075V5.18322C37.2162 4.35436 36.5419 3.68018 35.7131 3.68018H31.8506C31.4947 3.68018 31.2061 3.39168 31.2061 3.03564C31.2061 2.67961 31.4947 2.39111 31.8506 2.39111H35.7131C37.2527 2.39111 38.5053 3.64365 38.5053 5.18322V41.2075C38.5053 42.7473 37.2526 43.9998 35.7131 43.9998Z" fill="#1FA783"/>
</g>
<defs>
<clipPath id="clip0">
<rect width="44" height="44" fill="white"/>
</clipPath>
</defs>
</svg>
