<svg width="44" height="44" viewBox="0 0 44 44" fill="none" xmlns="http://www.w3.org/2000/svg">
<path d="M38.4997 0H10.6331C9.01305 0 7.69974 1.31331 7.69974 2.93333V27.8667H6.96641C6.56142 27.8667 6.23307 28.195 6.23307 28.6V29.3333H2.56641V30.8H6.23307V41.0667H2.56641V42.5333H6.23307V43.2667C6.23307 43.6716 6.56142 44 6.96641 44H14.2997C14.7047 44 15.0331 43.6716 15.0331 43.2667V42.5333H17.0622C19.0527 43.496 21.2348 43.9973 23.4459 44H31.5331C32.521 43.9962 33.4189 43.4259 33.8423 42.5333H38.4997C40.1198 42.5333 41.4331 41.22 41.4331 39.6V2.93333C41.4331 1.31331 40.1198 0 38.4997 0ZM13.5664 42.5333H7.69974V29.3333H13.5664V42.5333ZM31.5331 33C32.1405 33 32.6331 33.4925 32.6331 34.1C32.6331 34.7075 32.1405 35.2 31.5331 35.2H29.6997V36.6667H31.5331C32.1405 36.6667 32.6331 37.1592 32.6331 37.7667C32.6331 38.3741 32.1405 38.8667 31.5331 38.8667H29.6997V40.3333H31.5331C32.1405 40.3333 32.6331 40.8259 32.6331 41.4333C32.6331 42.0408 32.1405 42.5333 31.5331 42.5333H23.4459C21.4029 42.5299 19.3885 42.053 17.5609 41.14C17.4588 41.0905 17.3466 41.0654 17.2331 41.0667H15.0331V30.8H17.2331C17.4109 30.8 17.5826 30.7354 17.7163 30.6181L19.0319 29.4675C21.7906 27.0662 23.1139 23.4108 22.5314 19.8H22.6781C23.8834 19.7964 24.9354 20.6162 25.2264 21.7859C25.7335 23.7976 25.5898 25.9183 24.8157 27.8432L24.8033 27.8667H23.0997V29.3333H31.5331C32.1405 29.3333 32.6331 29.8259 32.6331 30.4333C32.6331 31.0408 32.1405 31.5333 31.5331 31.5333H29.6997V33H31.5331ZM39.9664 39.6C39.9664 40.4101 39.3098 41.0667 38.4997 41.0667H34.0623C33.9845 40.5098 33.7249 39.9942 33.3239 39.6C34.3364 38.6178 34.361 37.0008 33.3788 35.9882C33.3607 35.9696 33.3425 35.9514 33.3239 35.9333C34.3364 34.9511 34.361 33.3341 33.3788 32.3216C33.3607 32.303 33.3425 32.2847 33.3239 32.2667C34.3384 31.2796 34.3607 29.6569 33.3736 28.6424C32.8902 28.1455 32.2262 27.8657 31.5331 27.8667H26.3601C27.0807 25.7949 27.1801 23.5577 26.6461 21.4302C26.1936 19.6088 24.5571 18.3309 22.6803 18.3333H21.6331C21.2281 18.3333 20.8997 18.6617 20.8997 19.0667C20.8997 19.1267 20.9072 19.1866 20.9217 19.2449C21.7641 22.5799 20.6598 26.1053 18.0654 28.3639L16.9573 29.3333H15.0331V28.6C15.0331 28.195 14.7047 27.8667 14.2997 27.8667H9.16641V7.33333H39.9664V39.6ZM39.9664 5.86667H9.16641V2.93333C9.16641 2.12328 9.82301 1.46667 10.6331 1.46667H38.4997C39.3098 1.46667 39.9664 2.12328 39.9664 2.93333V5.86667Z" fill="#1FA783"/>
<path d="M11.3671 39.6001H9.90039V41.0668H11.3671V39.6001Z" fill="#1FA783"/>
<path d="M12.0995 2.93335H10.6328V4.40002H12.0995V2.93335Z" fill="#1FA783"/>
<path d="M15.0331 2.93335H13.5664V4.40002H15.0331V2.93335Z" fill="#1FA783"/>
<path d="M17.9667 2.93335H16.5V4.40002H17.9667V2.93335Z" fill="#1FA783"/>
<path d="M26.7672 12.4666H11.3672V13.9332H26.7672V12.4666Z" fill="#1FA783"/>
<path d="M26.7672 15.3999H11.3672V16.8666H26.7672V15.3999Z" fill="#1FA783"/>
<path d="M26.7658 9.53345H17.2324V11.0001H26.7658V9.53345Z" fill="#1FA783"/>
<path d="M15.7674 9.53345H14.3008V11.0001H15.7674V9.53345Z" fill="#1FA783"/>
<path d="M37.0335 18.3333H29.7001C29.2951 18.3333 28.9668 18.6616 28.9668 19.0666V24.9333C28.9668 25.3382 29.2951 25.6666 29.7001 25.6666H37.0335C37.4384 25.6666 37.7668 25.3382 37.7668 24.9333V19.0666C37.7668 18.6616 37.4384 18.3333 37.0335 18.3333ZM36.3001 24.1999H30.4335V19.7999H36.3001V24.1999Z" fill="#1FA783"/>
<path d="M37.0335 9.53345H29.7001C29.2951 9.53345 28.9668 9.8618 28.9668 10.2668V16.1334C28.9668 16.5384 29.2951 16.8668 29.7001 16.8668H37.0335C37.4384 16.8668 37.7668 16.5384 37.7668 16.1334V10.2668C37.7668 9.8618 37.4384 9.53345 37.0335 9.53345ZM36.3001 15.4001H30.4335V11.0001H36.3001V15.4001Z" fill="#1FA783"/>
<path d="M17.2339 18.3333H12.1005C11.6955 18.3333 11.3672 18.6616 11.3672 19.0666V24.9333C11.3672 25.3382 11.6955 25.6666 12.1005 25.6666H17.2339C17.6388 25.6666 17.9672 25.3382 17.9672 24.9333V19.0666C17.9672 18.6616 17.6388 18.3333 17.2339 18.3333ZM16.5005 24.1999H12.8339V19.7999H16.5005V24.1999Z" fill="#1FA783"/>
</svg>
