<svg width="44" height="44" viewBox="0 0 44 44" fill="none" xmlns="http://www.w3.org/2000/svg">
<path d="M43.4349 29.5764L36.8225 22.9629C38.42 20.8578 39.4174 18.3344 39.6732 15.6888C39.9864 12.442 39.1777 9.16161 37.3958 6.45156C37.2001 6.15414 36.8003 6.07156 36.5032 6.26727C36.2058 6.46298 36.1232 6.86279 36.3189 7.16021C39.691 12.2883 38.9837 19.1656 34.6371 23.5125C29.5604 28.5895 21.3007 28.5895 16.2244 23.5125C11.1477 18.4355 11.1477 10.1744 16.2244 5.09738C21.3007 0.0203628 29.5608 0.0203628 34.6354 5.0957L34.6707 5.13128C34.9218 5.38372 35.3296 5.3854 35.5821 5.13431C35.8349 4.88354 35.8362 4.47534 35.5854 4.2229L35.5485 4.18564C29.9693 -1.39391 20.8918 -1.39391 15.3126 4.18564C15.1374 4.36087 14.9679 4.53946 14.8037 4.7214H0.64453C0.288696 4.7214 0 5.0101 0 5.36593V8.21664C0 8.57281 0.288696 8.8615 0.64453 8.8615C1.0007 8.8615 1.28906 8.57281 1.28906 8.21664V6.0108H13.7698C13.2773 6.70266 12.8537 7.42843 12.4988 8.17937H4.46874C4.11291 8.17937 3.82421 8.46773 3.82421 8.8239C3.82421 9.18007 4.11291 9.46843 4.46874 9.46843H11.9654C11.7805 9.98607 11.6264 10.5121 11.5028 11.0442H4.46874C4.11291 11.0442 3.82421 11.3325 3.82421 11.6887C3.82421 12.0445 4.11291 12.3332 4.46874 12.3332H11.2645C11.1923 12.8559 11.149 13.3819 11.1346 13.9086H4.46874C4.11291 13.9086 3.82421 14.1973 3.82421 14.5535C3.82421 14.9093 4.11291 15.198 4.46874 15.198H11.1571C11.2732 17.0705 11.7536 18.9242 12.5999 20.642H11.5159C11.1598 20.642 10.8714 20.9307 10.8714 21.2868V40.3676C10.8714 40.7238 11.1598 41.0125 11.5159 41.0125H16.6722C17.0283 41.0125 17.3167 40.7238 17.3167 40.3676V26.0936C17.8971 26.4934 18.5004 26.8459 19.1214 27.1504V40.3676C19.1214 40.7238 19.4101 41.0125 19.7659 41.0125H24.9222C25.2783 41.0125 25.5667 40.7238 25.5667 40.3676V28.6076C26.0692 28.6026 26.5711 28.572 27.0709 28.515V38.4713C27.0709 38.8274 27.3593 39.1161 27.7155 39.1161C28.0713 39.1161 28.36 38.8274 28.36 38.4713V28.3075C30.3973 27.8845 32.3594 27.0151 34.0882 25.6988L40.6994 32.311C41.065 32.6762 41.5507 32.8776 42.067 32.8776C42.5836 32.8776 43.0694 32.6762 43.4346 32.311C44.1882 31.5577 44.1886 30.3311 43.4349 29.5764ZM16.0276 39.7231H12.1605V21.9314H13.3216C13.8792 22.8166 14.5425 23.6538 15.3126 24.4242C15.5449 24.6565 15.7839 24.8784 16.0276 25.0912V39.7231ZM20.4108 39.7231V27.7049C21.6609 28.1712 22.9634 28.4566 24.278 28.562V39.7231H20.4108ZM42.5235 31.3992C42.4017 31.5211 42.2395 31.5882 42.0673 31.5882C41.8951 31.5882 41.733 31.5211 41.6115 31.3992L35.0819 24.8693C35.24 24.7247 35.3958 24.577 35.5485 24.4242C35.7009 24.2718 35.8493 24.1164 35.994 23.9576L42.5229 30.4878C42.7743 30.7393 42.7746 31.1485 42.5235 31.3992Z" fill="#1FA783"/>
<path d="M27.7155 40.605C27.3597 40.605 27.071 40.8934 27.071 41.2495V42.7108H1.28906V11.0093C1.28906 10.6531 1.0007 10.3647 0.644531 10.3647C0.288696 10.3647 0 10.6531 0 11.0093V43.3553C0 43.7115 0.288696 43.9999 0.644531 43.9999H27.7155C28.0717 43.9999 28.36 43.7115 28.36 43.3553V41.2495C28.36 40.8934 28.0717 40.605 27.7155 40.605Z" fill="#1FA783"/>
<path d="M2.79297 26.4426V40.3669C2.79297 40.7227 3.08167 41.0114 3.4375 41.0114H8.59409C8.94992 41.0114 9.23862 40.7227 9.23862 40.3669V26.4426C9.23862 26.0868 8.94992 25.7981 8.59409 25.7981H3.4375C3.08167 25.7981 2.79297 26.0868 2.79297 26.4426ZM4.08203 27.0875H7.94955V39.722H4.08203V27.0875Z" fill="#1FA783"/>
<path d="M9.2883 18.0626C9.64447 18.0626 9.93283 17.7739 9.93283 17.4177C9.93283 17.0619 9.64447 16.7732 9.2883 16.7732H4.46875C4.11292 16.7732 3.82422 17.0619 3.82422 17.4177C3.82422 17.7739 4.11292 18.0626 4.46875 18.0626H9.2883Z" fill="#1FA783"/>
<path d="M25.4308 2.57715C22.2941 2.57715 19.3481 3.79572 17.1359 6.00827C14.9236 8.22083 13.7051 11.1672 13.7051 14.3043C13.7051 17.4413 14.9236 20.3877 17.1359 22.6003C19.3484 24.8128 22.2941 26.0314 25.4308 26.0314C28.5676 26.0314 31.5133 24.8128 33.7258 22.6003C35.938 20.3877 37.1563 17.4413 37.1563 14.3043C37.1563 11.1672 35.938 8.22083 33.7258 6.00827C31.5133 3.79572 28.5676 2.57715 25.4308 2.57715ZM32.8141 21.6885C30.8452 23.6577 28.2231 24.742 25.4308 24.742C22.6382 24.742 20.0164 23.6577 18.0476 21.6885C16.0784 19.7193 14.9941 17.0969 14.9941 14.3043C14.9941 11.5113 16.0784 8.88885 18.0476 6.91968C20.0829 4.88403 22.757 3.86588 25.4308 3.86588C28.1046 3.86588 30.7788 4.88403 32.8141 6.91968C34.7829 8.88885 35.8672 11.5113 35.8672 14.3043C35.8672 17.0969 34.7829 19.7193 32.8141 21.6885Z" fill="#1FA783"/>
</svg>
