<svg width="44" height="44" viewBox="0 0 44 44" fill="none" xmlns="http://www.w3.org/2000/svg">
<g clip-path="url(#clip0)">
<path d="M27.4517 12.1836C27.5716 12.0135 27.6669 11.8273 27.7342 11.6304C28.036 11.6812 28.3239 11.7962 28.5775 11.9677C29.0877 12.3125 29.6861 12.5037 30.3016 12.5195C30.496 12.5188 30.6897 12.5009 30.881 12.4665C31.6863 12.329 32.4042 11.8771 32.8762 11.2104C33.129 10.8118 33.5379 10.5382 34.0023 10.4562C34.4671 10.3746 34.9448 10.4917 35.3182 10.7799C35.9903 11.2451 36.8193 11.4241 37.6232 11.2777L37.3679 9.8332C36.9034 9.9152 36.4258 9.79775 36.0523 9.50985C34.6515 8.55129 32.7415 8.88824 31.7529 10.2679C31.5001 10.6664 31.0911 10.94 30.6264 11.022C30.4147 11.0646 30.196 11.0592 29.9861 11.0066C30.4201 10.892 30.8215 10.679 31.1595 10.3839C31.7883 9.8622 32.184 9.11167 32.2595 8.29813C32.2792 7.82654 32.4966 7.38539 32.8586 7.08246C33.2185 6.77595 33.6918 6.63845 34.1595 6.70397C34.9748 6.7781 35.7852 6.51742 36.4043 5.98245L35.4593 4.85953C35.0937 5.15494 34.625 5.29101 34.1581 5.2373C32.4658 5.10803 30.9798 6.35449 30.8133 8.04389C30.7939 8.51476 30.5769 8.95591 30.216 9.2592C29.8547 9.56213 29.3828 9.69963 28.9155 9.63733C28.4579 9.60188 27.9977 9.66311 27.5655 9.8178C27.3636 9.4676 27.0689 9.17971 26.714 8.98599L29.9929 2.43607C30.1068 2.20798 30.0943 1.93727 29.9596 1.72064C29.825 1.50436 29.5876 1.3733 29.333 1.37473C28.8163 1.37939 28.3204 1.17278 27.9601 0.802887C26.6653 -0.389862 24.6726 -0.389862 23.3782 0.802887C23.0144 1.16956 22.5192 1.37545 22.0028 1.37545C21.4861 1.37545 20.9913 1.16956 20.6275 0.802887C19.3316 -0.389146 17.3385 -0.389146 16.0427 0.802887C15.681 1.17314 15.1836 1.37975 14.6662 1.37473C14.412 1.37473 14.1757 1.50615 14.0421 1.72243C13.9082 1.93835 13.896 2.20869 14.0099 2.43607L17.2848 8.98599C16.7298 9.28212 16.3298 9.80383 16.1884 10.4169C16.047 11.0299 16.1777 11.6741 16.5472 12.1836C9.82325 13.9897 5.14499 20.0792 5.13281 27.0416V40.2417C5.13496 42.2659 6.77531 43.9059 8.79951 43.9084H35.1997C37.2235 43.9059 38.8639 42.2659 38.8664 40.2417V27.0416C38.8539 20.0792 34.1756 13.9897 27.4517 12.1836ZM16.9586 1.94766C17.3228 1.58099 17.818 1.37473 18.3351 1.37473C18.8518 1.37473 19.3473 1.58099 19.7115 1.94766C21.0067 3.13933 22.9994 3.13933 24.2949 1.94766C24.6583 1.58099 25.1528 1.37473 25.6692 1.37473C26.1852 1.37473 26.68 1.58099 27.0435 1.94766C27.3937 2.25667 27.7969 2.50052 28.2337 2.66703L25.213 8.70812H18.7859L15.7662 2.66775C16.2034 2.50088 16.6073 2.25703 16.9586 1.94766ZM18.3329 11.6415C17.9276 11.6415 17.5996 11.3131 17.5996 10.9081C17.5996 10.5032 17.9276 10.1748 18.3329 10.1748H25.6663C26.0713 10.1748 26.3996 10.5032 26.3996 10.9081C26.3996 11.3131 26.0713 11.6415 25.6663 11.6415H18.3329ZM37.3997 40.2417C37.3997 41.4566 36.4147 42.4417 35.1997 42.4417H8.79951C7.5842 42.4417 6.59949 41.4566 6.59949 40.2417V27.0416C6.60773 19.3498 12.8411 13.1167 20.5329 13.1082H23.4663C31.1577 13.1167 37.3911 19.3498 37.3997 27.0416V40.2417Z" fill="#1FA783"/>
<path d="M17.082 32.3894L25.8825 23.5894L26.9195 24.6263L18.1194 33.4268L17.082 32.3894Z" fill="#1FA783"/>
<path d="M24.9324 29.2415C23.7171 29.2415 22.7324 30.2265 22.7324 31.4415C22.7324 32.6564 23.7171 33.6415 24.9324 33.6415C26.1474 33.6415 27.1325 32.6564 27.1325 31.4415C27.1325 30.2265 26.1474 29.2415 24.9324 29.2415ZM24.9324 32.1748C24.5271 32.1748 24.1991 31.8465 24.1991 31.4415C24.1991 31.0365 24.5271 30.7081 24.9324 30.7081C25.3374 30.7081 25.6658 31.0365 25.6658 31.4415C25.6658 31.8465 25.3374 32.1748 24.9324 32.1748Z" fill="#1FA783"/>
<path d="M19.0653 27.7748C20.2802 27.7748 21.2653 26.7897 21.2653 25.5748C21.2653 24.3598 20.2802 23.3748 19.0653 23.3748C17.8499 23.3748 16.8652 24.3598 16.8652 25.5748C16.8652 26.7897 17.8499 27.7748 19.0653 27.7748ZM19.0653 24.8414C19.4702 24.8414 19.7986 25.1698 19.7986 25.5748C19.7986 25.9798 19.4702 26.3081 19.0653 26.3081C18.6599 26.3081 18.3319 25.9798 18.3319 25.5748C18.3319 25.1698 18.6599 24.8414 19.0653 24.8414Z" fill="#1FA783"/>
<path d="M21.9992 18.2415C16.3287 18.2415 11.7324 22.8381 11.7324 28.5082C11.7324 34.1783 16.3287 38.7749 21.9992 38.7749C27.6693 38.7749 32.2659 34.1783 32.2659 28.5082C32.2598 22.8406 27.6668 18.2475 21.9992 18.2415ZM21.9992 37.3083C17.139 37.3083 13.1991 33.3684 13.1991 28.5082C13.1991 23.648 17.139 19.7081 21.9992 19.7081C26.859 19.7081 30.7992 23.648 30.7992 28.5082C30.7939 33.3662 26.8568 37.3029 21.9992 37.3083Z" fill="#1FA783"/>
</g>
<defs>
<clipPath id="clip0">
<rect width="44" height="44" fill="white"/>
</clipPath>
</defs>
</svg>
