<svg width="44" height="44" viewBox="0 0 44 44" fill="none" xmlns="http://www.w3.org/2000/svg">
<path d="M36.868 42.8107H7.1317C6.97401 42.8107 6.82277 42.7481 6.71126 42.6366C6.59975 42.5251 6.53711 42.3738 6.53711 42.2161V1.78368C6.53711 1.62599 6.59975 1.47475 6.71126 1.36324C6.82277 1.25173 6.97401 1.18909 7.1317 1.18909H27.3545C27.5121 1.18896 27.6633 1.25141 27.7748 1.36271L37.2884 10.8709C37.3999 10.9824 37.4625 11.1336 37.4626 11.2913V42.2161C37.4626 42.3738 37.3999 42.5251 37.2884 42.6366C37.1769 42.7481 37.0257 42.8107 36.868 42.8107ZM7.7263 41.6215H36.2734V11.538L27.1083 2.37828H7.72451L7.7263 41.6215Z" fill="#1FA783"/>
<path d="M36.8679 11.8977H27.3544C27.1967 11.8977 27.0454 11.8351 26.9339 11.7236C26.8224 11.6121 26.7598 11.4608 26.7598 11.3031V1.78368C26.7598 1.62598 26.8224 1.47475 26.9339 1.36324C27.0454 1.25173 27.1967 1.18909 27.3544 1.18909C27.5121 1.18909 27.6633 1.25173 27.7748 1.36324C27.8863 1.47475 27.949 1.62598 27.949 1.78368V10.7085H36.8679C37.0256 10.7085 37.1768 10.7712 37.2883 10.8827C37.3998 10.9942 37.4625 11.1454 37.4625 11.3031C37.4625 11.4608 37.3998 11.6121 37.2883 11.7236C37.1768 11.8351 37.0256 11.8977 36.8679 11.8977Z" fill="#1FA783"/>
<path d="M32.7005 24.1061H11.3016C11.1439 24.1061 10.9927 24.0434 10.8812 23.9319C10.7697 23.8204 10.707 23.6692 10.707 23.5115C10.707 23.3538 10.7697 23.2025 10.8812 23.091C10.9927 22.9795 11.1439 22.9169 11.3016 22.9169H32.7005C32.8582 22.9169 33.0094 22.9795 33.1209 23.091C33.2324 23.2025 33.2951 23.3538 33.2951 23.5115C33.2951 23.6692 33.2324 23.8204 33.1209 23.9319C33.0094 24.0434 32.8582 24.1061 32.7005 24.1061Z" fill="#1FA783"/>
<path d="M32.7005 18.8489H11.3016C11.1439 18.8489 10.9927 18.7862 10.8812 18.6747C10.7697 18.5632 10.707 18.412 10.707 18.2543C10.707 18.0966 10.7697 17.9453 10.8812 17.8338C10.9927 17.7223 11.1439 17.6597 11.3016 17.6597H32.7005C32.8582 17.6597 33.0094 17.7223 33.1209 17.8338C33.2324 17.9453 33.2951 18.0966 33.2951 18.2543C33.2951 18.412 33.2324 18.5632 33.1209 18.6747C33.0094 18.7862 32.8582 18.8489 32.7005 18.8489Z" fill="#1FA783"/>
<path d="M23.7851 13.5866H11.3016C11.1439 13.5866 10.9927 13.524 10.8812 13.4125C10.7697 13.301 10.707 13.1497 10.707 12.9921C10.707 12.8344 10.7697 12.6831 10.8812 12.5716C10.9927 12.4601 11.1439 12.3975 11.3016 12.3975H23.7851C23.9428 12.3975 24.0941 12.4601 24.2056 12.5716C24.3171 12.6831 24.3797 12.8344 24.3797 12.9921C24.3797 13.1497 24.3171 13.301 24.2056 13.4125C24.0941 13.524 23.9428 13.5866 23.7851 13.5866Z" fill="#1FA783"/>
<path d="M23.7851 8.32444H11.3016C11.1439 8.32444 10.9927 8.2618 10.8812 8.15029C10.7697 8.03878 10.707 7.88755 10.707 7.72985C10.707 7.57215 10.7697 7.42092 10.8812 7.30941C10.9927 7.1979 11.1439 7.13525 11.3016 7.13525H23.7851C23.9428 7.13525 24.0941 7.1979 24.2056 7.30941C24.3171 7.42092 24.3797 7.57215 24.3797 7.72985C24.3797 7.88755 24.3171 8.03878 24.2056 8.15029C24.0941 8.2618 23.9428 8.32444 23.7851 8.32444Z" fill="#1FA783"/>
<path d="M15.925 37.6016C14.9413 37.6018 13.9798 37.3102 13.1618 36.7638C12.3439 36.2174 11.7064 35.4408 11.3299 34.532C10.9534 33.6233 10.8548 32.6233 11.0467 31.6586C11.2385 30.6939 11.7121 29.8077 12.4076 29.1121C13.1031 28.4165 13.9892 27.9428 14.9539 27.7509C15.9186 27.5589 16.9186 27.6574 17.8274 28.0338C18.7362 28.4102 19.5129 29.0476 20.0594 29.8654C20.6059 30.6833 20.8976 31.6448 20.8976 32.6285C20.8961 33.9469 20.3718 35.2109 19.4396 36.1433C18.5074 37.0756 17.2434 37.6001 15.925 37.6016ZM15.925 28.8445C15.1765 28.8443 14.4449 29.0662 13.8225 29.4819C13.2002 29.8976 12.7151 30.4886 12.4286 31.18C12.1421 31.8714 12.0671 32.6323 12.213 33.3663C12.3589 34.1004 12.7193 34.7747 13.2485 35.3039C13.7776 35.8332 14.4519 36.1937 15.1859 36.3397C15.92 36.4858 16.6808 36.4109 17.3723 36.1245C18.0638 35.8381 18.6548 35.3531 19.0706 34.7308C19.4864 34.1085 19.7084 33.3769 19.7084 32.6285C19.7073 31.6253 19.3083 30.6636 18.5991 29.9542C17.8898 29.2448 16.9281 28.8457 15.925 28.8445Z" fill="#1FA783"/>
<path d="M15.1204 34.5C14.7502 34.5002 14.3882 34.3905 14.0804 34.1849C13.7725 33.9793 13.5325 33.687 13.3907 33.345C13.2489 33.003 13.2118 32.6266 13.2839 32.2635C13.3561 31.9003 13.5343 31.5667 13.7961 31.3049C14.0578 31.0431 14.3913 30.8648 14.7544 30.7925C15.1176 30.7202 15.4939 30.7572 15.836 30.8989C16.1781 31.0405 16.4704 31.2805 16.6761 31.5883C16.8818 31.8961 16.9916 32.258 16.9916 32.6283C16.991 33.1244 16.7937 33.6 16.4429 33.9509C16.0921 34.3018 15.6166 34.4993 15.1204 34.5ZM15.1204 31.9433C14.9854 31.9432 14.8534 31.9831 14.741 32.058C14.6287 32.133 14.5411 32.2395 14.4894 32.3642C14.4376 32.489 14.424 32.6262 14.4503 32.7587C14.4766 32.8911 14.5415 33.0128 14.637 33.1083C14.7324 33.2039 14.854 33.2689 14.9864 33.2953C15.1189 33.3217 15.2561 33.3082 15.3809 33.2566C15.5057 33.2049 15.6123 33.1174 15.6873 33.0052C15.7624 32.8929 15.8024 32.7609 15.8024 32.6259C15.8015 32.4455 15.7293 32.2727 15.6015 32.1453C15.4738 32.0179 15.3009 31.9461 15.1204 31.9457V31.9433Z" fill="#1FA783"/>
<path d="M32.1059 33.2229H20.3055C20.1478 33.2229 19.9966 33.1602 19.8851 33.0487C19.7736 32.9372 19.7109 32.786 19.7109 32.6283C19.7109 32.4706 19.7736 32.3194 19.8851 32.2078C19.9966 32.0963 20.1478 32.0337 20.3055 32.0337H32.1059C32.2636 32.0337 32.4148 32.0963 32.5263 32.2078C32.6378 32.3194 32.7005 32.4706 32.7005 32.6283C32.7005 32.786 32.6378 32.9372 32.5263 33.0487C32.4148 33.1602 32.2636 33.2229 32.1059 33.2229Z" fill="#1FA783"/>
<path d="M30.2098 36.1025C30.0521 36.1025 29.9009 36.0398 29.7894 35.9283C29.6779 35.8168 29.6152 35.6656 29.6152 35.5079V32.6283C29.6152 32.4706 29.6779 32.3194 29.7894 32.2078C29.9009 32.0963 30.0521 32.0337 30.2098 32.0337C30.3675 32.0337 30.5188 32.0963 30.6303 32.2078C30.7418 32.3194 30.8044 32.4706 30.8044 32.6283V35.5079C30.8044 35.6656 30.7418 35.8168 30.6303 35.9283C30.5188 36.0398 30.3675 36.1025 30.2098 36.1025Z" fill="#1FA783"/>
<path d="M27.2821 35.1666C27.1244 35.1666 26.9732 35.104 26.8617 34.9925C26.7501 34.881 26.6875 34.7297 26.6875 34.572V32.6283C26.6875 32.4706 26.7501 32.3194 26.8617 32.2078C26.9732 32.0963 27.1244 32.0337 27.2821 32.0337C27.4398 32.0337 27.591 32.0963 27.7025 32.2078C27.8141 32.3194 27.8767 32.4706 27.8767 32.6283V34.572C27.8767 34.7297 27.8141 34.881 27.7025 34.9925C27.591 35.104 27.4398 35.1666 27.2821 35.1666Z" fill="#1FA783"/>
</svg>
