<svg width="44" height="44" viewBox="0 0 44 44" fill="none" xmlns="http://www.w3.org/2000/svg">
<path d="M31.625 8.9375V10.4122C30.8309 10.6638 30.25 11.3988 30.25 12.2746C30.25 13.0219 30.6652 13.695 31.3349 14.0298L32.6755 14.6994C32.8756 14.7998 33 15.0012 33 15.2254C33 15.5492 32.7367 15.8125 32.4129 15.8125H32.2121C31.8883 15.8125 31.625 15.5492 31.625 15.2254V15.125H30.25V15.2254C30.25 16.1013 30.8309 16.8362 31.625 17.0878V18.5625H33V17.0878C33.7941 16.8362 34.375 16.1013 34.375 15.2254C34.375 14.4781 33.9598 13.805 33.2901 13.4702L31.9495 12.8006C31.7494 12.7002 31.625 12.4987 31.625 12.2746C31.625 11.9508 31.8883 11.6875 32.2121 11.6875H32.4129C32.7367 11.6875 33 11.9508 33 12.2746V12.375H34.375V12.2746C34.375 11.3988 33.7941 10.6638 33 10.4122V8.9375H31.625Z" fill="#1FA783"/>
<path d="M39.8372 14.5035C39.8612 14.2553 39.875 14.0044 39.875 13.75C39.875 9.812 36.8486 6.57112 33 6.22256V0.6875H3.4375C1.54206 0.6875 0 2.22956 0 4.125V26.125C0 28.0204 1.54206 29.5625 3.4375 29.5625H6.875V24.0625H10.703L10.7614 24.1759C10.5119 24.6641 10.3001 25.1776 10.1296 25.7084L8.25 26.3113V31.4394L10.1296 32.0416C10.3008 32.5731 10.5119 33.0866 10.7614 33.5741L9.85944 35.3258L13.4853 38.9517L15.2378 38.0497C15.7259 38.2993 16.2394 38.511 16.7702 38.6815L17.3738 40.5625H22.0701C22.3898 42.1293 23.7779 43.3125 25.4382 43.3125H39.1882C41.0836 43.3125 42.6257 41.7704 42.6257 39.875V17.875C42.625 16.2023 41.4226 14.8081 39.8372 14.5035ZM38.5 13.75C38.5 17.1614 35.7239 19.9375 32.3125 19.9375C28.9011 19.9375 26.125 17.1614 26.125 13.75C26.125 10.3386 28.9011 7.5625 32.3125 7.5625C35.7239 7.5625 38.5 10.3386 38.5 13.75ZM38.5 18.5625V22.6875H26.125V18.5625H26.4832C27.8713 20.2407 29.9688 21.3125 32.3125 21.3125C34.6562 21.3125 36.7531 20.2407 38.1418 18.5625H38.5ZM5.5 28.1875H3.4375C2.30037 28.1875 1.375 27.2621 1.375 26.125V6.87363C1.94975 7.30538 2.66406 7.5625 3.4375 7.5625H5.5V28.1875ZM17.8578 37.5677L17.5024 37.4674C16.8245 37.2756 16.1776 37.0088 15.5801 36.6747L15.2584 36.4946L13.7493 37.2708L11.5417 35.0632L12.3186 33.5541L12.1378 33.2317C11.8037 32.6356 11.5369 31.9887 11.3451 31.3101L11.2448 30.9547L9.625 30.4363V27.3144L11.2448 26.7953L11.3451 26.4399C11.5369 25.762 11.8037 25.1151 12.1378 24.5176L12.3179 24.1959L12.2499 24.0625H14.1006C12.9903 25.4011 12.375 27.0827 12.375 28.875C12.375 33.0447 15.7678 36.4375 19.9375 36.4375C20.6436 36.4375 21.3324 36.3337 22 36.1439V39.1875H18.3762L17.8578 37.5677ZM22 34.7036C21.34 34.9374 20.6491 35.0625 19.9375 35.0625C16.5261 35.0625 13.75 32.2864 13.75 28.875C13.75 26.9823 14.5943 25.2436 16.0621 24.0625H22V34.7036ZM22 17.875V22.6875H6.875V6.1875H3.4375C2.30037 6.1875 1.375 5.26213 1.375 4.125C1.375 2.98787 2.30037 2.0625 3.4375 2.0625H31.625V6.22256C27.7764 6.57112 24.75 9.812 24.75 13.75C24.75 14.0044 24.7638 14.2553 24.7878 14.5035C23.2024 14.8081 22 16.2023 22 17.875ZM41.25 39.875C41.25 41.0121 40.3246 41.9375 39.1875 41.9375H25.4375C24.3004 41.9375 23.375 41.0121 23.375 39.875V17.875C23.375 16.8692 24.0996 16.0325 25.0532 15.8517C25.1879 16.3171 25.3674 16.7633 25.5846 17.1875H24.75V24.0625H39.875V17.1875H39.0404C39.2583 16.7633 39.4371 16.3171 39.5718 15.8517C40.5254 16.0325 41.25 16.8692 41.25 17.875V39.875Z" fill="#1FA783"/>
<path d="M35.75 40.5625H39.875V30.9375H35.75V40.5625ZM37.125 32.3125H38.5V39.1875H37.125V32.3125Z" fill="#1FA783"/>
<path d="M30.25 40.5625H34.375V36.4375H30.25V40.5625ZM31.625 37.8125H33V39.1875H31.625V37.8125Z" fill="#1FA783"/>
<path d="M24.75 40.5625H28.875V36.4375H24.75V40.5625ZM26.125 37.8125H27.5V39.1875H26.125V37.8125Z" fill="#1FA783"/>
<path d="M30.25 35.0625H34.375V30.9375H30.25V35.0625ZM31.625 32.3125H33V33.6875H31.625V32.3125Z" fill="#1FA783"/>
<path d="M24.75 35.0625H28.875V30.9375H24.75V35.0625ZM26.125 32.3125H27.5V33.6875H26.125V32.3125Z" fill="#1FA783"/>
<path d="M30.25 29.5625H34.375V25.4375H30.25V29.5625ZM31.625 26.8125H33V28.1875H31.625V26.8125Z" fill="#1FA783"/>
<path d="M35.75 29.5625H39.875V25.4375H35.75V29.5625ZM37.125 26.8125H38.5V28.1875H37.125V26.8125Z" fill="#1FA783"/>
<path d="M24.75 29.5625H28.875V25.4375H24.75V29.5625ZM26.125 26.8125H27.5V28.1875H26.125V26.8125Z" fill="#1FA783"/>
<path d="M8.25 10.3125H22V3.4375H8.25V10.3125ZM9.625 4.8125H20.625V8.9375H9.625V4.8125Z" fill="#1FA783"/>
<path d="M8.25 11.6875H20.625V13.0625H8.25V11.6875Z" fill="#1FA783"/>
<path d="M16.5 14.4375H17.875V15.8125H16.5V14.4375Z" fill="#1FA783"/>
<path d="M19.25 14.4375H20.625V15.8125H19.25V14.4375Z" fill="#1FA783"/>
<path d="M8.25 14.4375H15.125V15.8125H8.25V14.4375Z" fill="#1FA783"/>
<path d="M8.25 17.1875H20.625V18.5625H8.25V17.1875Z" fill="#1FA783"/>
<path d="M8.25 19.9375H20.625V21.3125H8.25V19.9375Z" fill="#1FA783"/>
</svg>
