<svg width="350" height="405" viewBox="0 0 350 405" fill="none" xmlns="http://www.w3.org/2000/svg">
<mask id="mask0" mask-type="alpha" maskUnits="userSpaceOnUse" x="0" y="0" width="350" height="405">
<rect width="350" height="405" fill="#C4C4C4"/>
</mask>
<g mask="url(#mask0)">
<rect width="350" height="405" fill="#19354D"/>
<mask id="mask1" mask-type="alpha" maskUnits="userSpaceOnUse" x="0" y="-56" width="350" height="464">
<rect y="-56" width="350" height="464" fill="#1A364E"/>
</mask>
<g mask="url(#mask1)">
<rect y="-414.097" width="350" height="822.097" fill="#1A364E"/>
<path opacity="0.4" fill-rule="evenodd" clip-rule="evenodd" d="M-127 197.699L-111.167 161.76C-95.3333 126.526 -63.6667 55.3532 -32 55.3532C-0.333336 55.3532 31.3333 126.526 63 161.76C94.6667 197.699 126.333 197.699 158 161.76C189.667 126.526 221.333 55.3532 253 25.0519C284.667 -5.24933 316.333 4.61621 332.167 9.54897L348 15.1864V400H332.167C316.333 400 284.667 400 253 400C221.333 400 189.667 400 158 400C126.333 400 94.6667 400 63 400C31.3333 400 -0.333336 400 -32 400C-63.6667 400 -95.3333 400 -111.167 400H-127V197.699Z" fill="url(#paint0_linear)"/>
</g>
</g>
<defs>
<linearGradient id="paint0_linear" x1="110.5" y1="4" x2="110.5" y2="400" gradientUnits="userSpaceOnUse">
<stop stop-color="#2C4C68"/>
<stop offset="1" stop-color="#1A364E" stop-opacity="0"/>
</linearGradient>
</defs>
</svg>
