<svg width="255" height="288" viewBox="0 0 255 288" fill="none" xmlns="http://www.w3.org/2000/svg">
<path fill-rule="evenodd" clip-rule="evenodd" d="M-706.996 161.416L-656.694 131.467C-606.392 102.105 -505.787 42.7944 -405.183 42.7944C-304.579 42.7944 -203.974 102.105 -103.37 131.467C-2.7655 161.416 97.8389 161.416 198.443 131.467C299.048 102.105 399.652 42.7943 500.256 17.5433C600.861 -7.70777 701.465 0.513506 751.767 4.62414L802.069 9.32202V330H751.767C701.465 330 600.861 330 500.256 330C399.652 330 299.048 330 198.443 330C97.8389 330 -2.7655 330 -103.37 330C-203.974 330 -304.579 330 -405.183 330C-505.787 330 -606.392 330 -656.694 330H-706.996V161.416Z" fill="url(#paint0_linear)"/>
<path opacity="0.7" d="M-737 207L-685.698 160.615C-634.395 115.14 -531.791 23.2798 -429.186 23.2798C-326.582 23.2798 -223.977 115.14 -121.372 160.615C-18.7678 207 83.8368 207 186.441 160.615C289.046 115.14 391.651 23.2798 494.255 -15.829C596.86 -54.9378 699.464 -42.2047 750.767 -35.8381L802.069 -28.5621" stroke="url(#paint1_linear)" stroke-opacity="0.2" stroke-width="2"/>
<path opacity="0.7" d="M-555 105L-503.438 90.7135C-451.877 76.7071 -348.754 48.4142 -245.63 48.4142C-142.507 48.4142 -39.3841 76.7071 63.7391 90.7135C166.862 105 269.985 105 373.109 90.7135C476.232 76.7071 579.355 48.4142 682.478 36.3687C785.601 24.3232 888.725 28.245 940.286 30.2059L991.848 32.4469" stroke="url(#paint2_linear)" stroke-opacity="0.2" stroke-width="2"/>
<defs>
<linearGradient id="paint0_linear" x1="47.5367" y1="0" x2="47.5367" y2="330" gradientUnits="userSpaceOnUse">
<stop stop-color="#26CA9E"/>
<stop offset="1" stop-color="#1FA783" stop-opacity="0"/>
</linearGradient>
<linearGradient id="paint1_linear" x1="-1184.83" y1="651.003" x2="1273.64" y2="-4.69929" gradientUnits="userSpaceOnUse">
<stop stop-color="white" stop-opacity="0"/>
<stop offset="1" stop-color="white"/>
</linearGradient>
<linearGradient id="paint2_linear" x1="-1005.09" y1="241.753" x2="500.863" y2="-1068.91" gradientUnits="userSpaceOnUse">
<stop stop-color="white"/>
<stop offset="1" stop-color="white" stop-opacity="0"/>
</linearGradient>
</defs>
</svg>
