<svg width="788" height="374" viewBox="0 0 788 374" fill="none" xmlns="http://www.w3.org/2000/svg">
<path fill-rule="evenodd" clip-rule="evenodd" d="M-604.996 205.416L-554.694 175.467C-504.392 146.105 -403.787 86.7944 -303.183 86.7944C-202.579 86.7944 -101.974 146.105 -1.36987 175.467C99.2345 205.416 199.839 205.416 300.443 175.467C401.048 146.105 501.652 86.7943 602.256 61.5433C702.861 36.2922 803.465 44.5135 853.767 48.6241L904.069 53.322V374H853.767C803.465 374 702.861 374 602.256 374C501.652 374 401.048 374 300.443 374C199.839 374 99.2345 374 -1.36987 374C-101.974 374 -202.579 374 -303.183 374C-403.787 374 -504.392 374 -554.694 374H-604.996V205.416Z" fill="url(#paint0_linear)"/>
<path opacity="0.7" d="M-635 251L-583.698 204.615C-532.395 159.14 -429.791 67.2798 -327.186 67.2798C-224.582 67.2798 -121.977 159.14 -19.3724 204.615C83.2322 251 185.837 251 288.441 204.615C391.046 159.14 493.651 67.2798 596.255 28.171C698.86 -10.9378 801.464 1.79532 852.767 8.16186L904.069 15.4379" stroke="url(#paint1_linear)" stroke-opacity="0.2" stroke-width="2"/>
<path opacity="0.7" d="M-453 149L-401.438 134.713C-349.877 120.707 -246.754 92.4142 -143.63 92.4142C-40.5073 92.4142 62.6159 120.707 165.739 134.713C268.862 149 371.985 149 475.109 134.713C578.232 120.707 681.355 92.4142 784.478 80.3687C887.601 68.3232 990.725 72.245 1042.29 74.2059L1093.85 76.4469" stroke="url(#paint2_linear)" stroke-opacity="0.2" stroke-width="2"/>
<defs>
<linearGradient id="paint0_linear" x1="149.537" y1="44" x2="149.537" y2="374" gradientUnits="userSpaceOnUse">
<stop stop-color="#26CA9E"/>
<stop offset="1" stop-color="#1FA783" stop-opacity="0"/>
</linearGradient>
<linearGradient id="paint1_linear" x1="-1082.83" y1="695.003" x2="1375.64" y2="39.3007" gradientUnits="userSpaceOnUse">
<stop stop-color="white" stop-opacity="0"/>
<stop offset="1" stop-color="white"/>
</linearGradient>
<linearGradient id="paint2_linear" x1="-903.09" y1="285.753" x2="602.863" y2="-1024.91" gradientUnits="userSpaceOnUse">
<stop stop-color="white"/>
<stop offset="1" stop-color="white" stop-opacity="0"/>
</linearGradient>
</defs>
</svg>
