<svg width="475" height="399" viewBox="0 0 475 399" fill="none" xmlns="http://www.w3.org/2000/svg">
<path d="M429.112 299.34C423.033 309.869 411.913 316.88 396.914 320.496C381.913 324.113 363.076 324.321 341.659 321.276C298.828 315.187 245.78 296.101 192.682 265.445C139.585 234.789 96.532 198.391 69.8426 164.343C56.4971 147.318 47.2593 130.901 42.8911 116.101C38.5234 101.303 39.0353 88.1673 45.114 77.6387C51.1926 67.1101 62.3125 60.0989 77.312 56.4824C92.3131 52.8656 111.149 52.6573 132.566 55.7023C175.398 61.7919 228.446 80.8778 281.543 111.534C334.641 142.189 377.694 178.588 404.383 212.636C417.729 229.661 426.966 246.078 431.335 260.877C435.702 275.676 435.19 288.811 429.112 299.34Z" stroke="#1FA783"/>
<rect x="219.998" y="86.505" width="207.293" height="207.293" transform="rotate(45 219.998 86.505)" stroke="#E6E8EA" stroke-width="26.0526"/>
<path d="M166.893 327.611V184.014H274.59V327.611" stroke="#E6E8EA" stroke-width="26.0526"/>
<path d="M48.6875 141.23H53.5566V158.387L63.998 141.23H69.1836V167H64.3145V150.178L53.8906 167H48.6875V141.23ZM74.5625 141.23H95.0586V167H89.8555V145.555H79.7656V167H74.5625V141.23Z" fill="#1FA783"/>
<path d="M316.562 276.273C316.562 273.648 316.955 271.445 317.74 269.664C318.326 268.352 319.123 267.174 320.131 266.131C321.15 265.088 322.264 264.314 323.471 263.811C325.076 263.131 326.928 262.791 329.025 262.791C332.822 262.791 335.857 263.969 338.131 266.324C340.416 268.68 341.559 271.955 341.559 276.15C341.559 280.311 340.428 283.568 338.166 285.924C335.904 288.268 332.881 289.439 329.096 289.439C325.264 289.439 322.217 288.273 319.955 285.941C317.693 283.598 316.562 280.375 316.562 276.273ZM321.924 276.098C321.924 279.016 322.598 281.23 323.945 282.742C325.293 284.242 327.004 284.992 329.078 284.992C331.152 284.992 332.852 284.248 334.176 282.76C335.512 281.26 336.18 279.016 336.18 276.027C336.18 273.074 335.529 270.871 334.229 269.418C332.939 267.965 331.223 267.238 329.078 267.238C326.934 267.238 325.205 267.977 323.893 269.453C322.58 270.918 321.924 273.133 321.924 276.098ZM344.582 276.273C344.582 273.648 344.975 271.445 345.76 269.664C346.346 268.352 347.143 267.174 348.15 266.131C349.17 265.088 350.283 264.314 351.49 263.811C353.096 263.131 354.947 262.791 357.045 262.791C360.842 262.791 363.877 263.969 366.15 266.324C368.436 268.68 369.578 271.955 369.578 276.15C369.578 280.311 368.447 283.568 366.186 285.924C363.924 288.268 360.9 289.439 357.115 289.439C353.283 289.439 350.236 288.273 347.975 285.941C345.713 283.598 344.582 280.375 344.582 276.273ZM349.943 276.098C349.943 279.016 350.617 281.23 351.965 282.742C353.312 284.242 355.023 284.992 357.098 284.992C359.172 284.992 360.871 284.248 362.195 282.76C363.531 281.26 364.199 279.016 364.199 276.027C364.199 273.074 363.549 270.871 362.248 269.418C360.959 267.965 359.242 267.238 357.098 267.238C354.953 267.238 353.225 267.977 351.912 269.453C350.6 270.918 349.943 273.133 349.943 276.098ZM372.602 276.273C372.602 273.648 372.994 271.445 373.779 269.664C374.365 268.352 375.162 267.174 376.17 266.131C377.189 265.088 378.303 264.314 379.51 263.811C381.115 263.131 382.967 262.791 385.064 262.791C388.861 262.791 391.896 263.969 394.17 266.324C396.455 268.68 397.598 271.955 397.598 276.15C397.598 280.311 396.467 283.568 394.205 285.924C391.943 288.268 388.92 289.439 385.135 289.439C381.303 289.439 378.256 288.273 375.994 285.941C373.732 283.598 372.602 280.375 372.602 276.273ZM377.963 276.098C377.963 279.016 378.637 281.23 379.984 282.742C381.332 284.242 383.043 284.992 385.117 284.992C387.191 284.992 388.891 284.248 390.215 282.76C391.551 281.26 392.219 279.016 392.219 276.027C392.219 273.074 391.568 270.871 390.268 269.418C388.979 267.965 387.262 267.238 385.117 267.238C382.973 267.238 381.244 267.977 379.932 269.453C378.619 270.918 377.963 273.133 377.963 276.098Z" fill="#1FA783"/>
<path d="M422.713 180.321C426.311 189.49 424.663 200.287 418.469 212.016C412.276 223.743 401.569 236.342 387.17 249.054C358.376 274.477 314.907 300.28 263.584 320.419C212.261 340.557 162.843 351.202 124.444 352.145C105.242 352.617 88.824 350.662 76.3084 346.276C63.7909 341.888 55.2401 335.094 51.6421 325.924C48.044 316.755 49.6924 305.958 55.8861 294.229C62.0788 282.502 72.7864 269.903 87.1849 257.191C115.979 231.769 159.448 205.965 210.771 185.827C262.094 165.688 311.512 155.044 349.911 154.1C369.113 153.628 385.531 155.583 398.047 159.97C410.564 164.357 419.115 171.151 422.713 180.321Z" stroke="#0B253C"/>
</svg>
