<svg width="1440" height="517" viewBox="0 0 1440 517" fill="none" xmlns="http://www.w3.org/2000/svg">
<mask id="mask0" mask-type="alpha" maskUnits="userSpaceOnUse" x="0" y="0" width="1440" height="517">
<rect width="1440" height="517" fill="#1A364E"/>
</mask>
<g mask="url(#mask0)">
<rect y="-399" width="1440" height="916" fill="#1A364E"/>
<path opacity="0.4" fill-rule="evenodd" clip-rule="evenodd" d="M-390 325.362L-329 290.784C-268 256.885 -146 188.408 -24 188.408C98 188.408 220 256.885 342 290.784C464 325.362 586 325.362 708 290.784C830 256.885 952 188.408 1074 159.255C1196 130.101 1318 139.593 1379 144.339L1440 149.763V520H1379C1318 520 1196 520 1074 520C952 520 830 520 708 520C586 520 464 520 342 520C220 520 98 520 -24 520C-146 520 -268 520 -329 520H-390V325.362Z" fill="url(#paint0_linear)"/>
<path opacity="0.5" d="M0 265L62.5 248.673C125 232.665 250 200.33 375 200.33C500 200.33 625 232.665 750 248.673C875 265 1000 265 1125 248.673C1250 232.665 1375 200.33 1500 186.564C1625 172.798 1750 177.28 1812.5 179.521L1875 182.082" stroke="url(#paint1_linear)" stroke-opacity="0.2" stroke-width="2"/>
<path opacity="0.5" d="M-426 378L-363.8 324.565C-301.6 272.177 -177.2 166.354 -52.8 166.354C71.6 166.354 196 272.177 320.4 324.565C444.8 378 569.2 378 693.6 324.565C818 272.177 942.4 166.354 1066.8 121.301C1191.2 76.2477 1315.6 90.9162 1377.8 98.2505L1440 106.632" stroke="url(#paint2_linear)" stroke-opacity="0.2" stroke-width="2"/>
</g>
<defs>
<linearGradient id="paint0_linear" x1="525" y1="139" x2="525" y2="520" gradientUnits="userSpaceOnUse">
<stop stop-color="#2C4C68"/>
<stop offset="1" stop-color="#1A364E" stop-opacity="0"/>
</linearGradient>
<linearGradient id="paint1_linear" x1="-545.573" y1="421.289" x2="1186.59" y2="-1177.65" gradientUnits="userSpaceOnUse">
<stop stop-color="white"/>
<stop offset="1" stop-color="white" stop-opacity="0"/>
</linearGradient>
<linearGradient id="paint2_linear" x1="-968.954" y1="889.491" x2="1990.58" y2="58.7469" gradientUnits="userSpaceOnUse">
<stop stop-color="white" stop-opacity="0"/>
<stop offset="1" stop-color="white"/>
</linearGradient>
</defs>
</svg>
