<svg width="255" height="288" viewBox="0 0 255 288" fill="none" xmlns="http://www.w3.org/2000/svg">
<path fill-rule="evenodd" clip-rule="evenodd" d="M-1006 161.416L-955.694 131.467C-905.392 102.105 -804.787 42.7944 -704.183 42.7944C-603.579 42.7944 -502.974 102.105 -402.37 131.467C-301.766 161.416 -201.161 161.416 -100.557 131.467C0.0476074 102.105 100.652 42.7943 201.256 17.5433C301.861 -7.70777 402.465 0.513506 452.767 4.62414L503.069 9.32202V330H452.767C402.465 330 301.861 330 201.256 330C100.652 330 0.0476074 330 -100.557 330C-201.161 330 -301.766 330 -402.37 330C-502.974 330 -603.579 330 -704.183 330C-804.787 330 -905.392 330 -955.694 330H-1006V161.416Z" fill="url(#paint0_linear)"/>
<path opacity="0.7" d="M-1036 207L-984.698 160.615C-933.395 115.14 -830.791 23.2798 -728.186 23.2798C-625.582 23.2798 -522.977 115.14 -420.372 160.615C-317.768 207 -215.163 207 -112.559 160.615C-9.95397 115.14 92.6506 23.2798 195.255 -15.829C297.86 -54.9378 400.464 -42.2047 451.767 -35.8381L503.069 -28.5621" stroke="url(#paint1_linear)" stroke-opacity="0.2" stroke-width="2"/>
<path opacity="0.7" d="M-854 105L-802.438 90.7135C-750.877 76.7071 -647.754 48.4142 -544.63 48.4142C-441.507 48.4142 -338.384 76.7071 -235.261 90.7135C-132.138 105 -29.0146 105 74.1086 90.7135C177.232 76.7071 280.355 48.4142 383.478 36.3687C486.601 24.3232 589.725 28.245 641.286 30.2059L692.848 32.4469" stroke="url(#paint2_linear)" stroke-opacity="0.2" stroke-width="2"/>
<defs>
<linearGradient id="paint0_linear" x1="-251.463" y1="0" x2="-251.463" y2="330" gradientUnits="userSpaceOnUse">
<stop stop-color="#26CA9E"/>
<stop offset="1" stop-color="#1FA783" stop-opacity="0"/>
</linearGradient>
<linearGradient id="paint1_linear" x1="-1483.83" y1="651.003" x2="974.639" y2="-4.69929" gradientUnits="userSpaceOnUse">
<stop stop-color="white" stop-opacity="0"/>
<stop offset="1" stop-color="white"/>
</linearGradient>
<linearGradient id="paint2_linear" x1="-1304.09" y1="241.753" x2="201.863" y2="-1068.91" gradientUnits="userSpaceOnUse">
<stop stop-color="white"/>
<stop offset="1" stop-color="white" stop-opacity="0"/>
</linearGradient>
</defs>
</svg>
