<svg width="255" height="288" viewBox="0 0 255 288" fill="none" xmlns="http://www.w3.org/2000/svg">
<path fill-rule="evenodd" clip-rule="evenodd" d="M-1350 216.362L-1289 181.784C-1228 147.885 -1106 79.408 -984 79.408C-862 79.408 -740 147.885 -618 181.784C-496 216.362 -374 216.362 -252 181.784C-130 147.885 -8 79.408 114 50.2545C236 21.101 358 30.5929 419 35.3388L480 40.7627V411H419C358 411 236 411 114 411C-8 411 -130 411 -252 411C-374 411 -496 411 -618 411C-740 411 -862 411 -984 411C-1106 411 -1228 411 -1289 411H-1350V216.362Z" fill="url(#paint0_linear)"/>
<path opacity="0.5" d="M-960 156L-897.5 139.673C-835 123.665 -710 91.3305 -585 91.3305C-460 91.3305 -335 123.665 -210 139.673C-85 156 40 156 165 139.673C290 123.665 415 91.3305 540 77.5642C665 63.7979 790 68.28 852.5 70.521L915 73.0821" stroke="url(#paint1_linear)" stroke-opacity="0.2" stroke-width="2"/>
<path opacity="0.5" d="M-1386 269L-1323.8 215.565C-1261.6 163.177 -1137.2 57.3543 -1012.8 57.3543C-888.4 57.3543 -764 163.177 -639.6 215.565C-515.2 269 -390.8 269 -266.4 215.565C-142 163.177 -17.6 57.3543 106.8 12.301C231.2 -32.7523 355.6 -18.0838 417.8 -10.7495L480 -2.36753" stroke="url(#paint2_linear)" stroke-opacity="0.2" stroke-width="2"/>
<defs>
<linearGradient id="paint0_linear" x1="-435" y1="30" x2="-435" y2="411" gradientUnits="userSpaceOnUse">
<stop stop-color="#2C4C68"/>
<stop offset="1" stop-color="#1A364E" stop-opacity="0"/>
</linearGradient>
<linearGradient id="paint1_linear" x1="-1505.57" y1="312.289" x2="226.593" y2="-1286.65" gradientUnits="userSpaceOnUse">
<stop stop-color="white"/>
<stop offset="1" stop-color="white" stop-opacity="0"/>
</linearGradient>
<linearGradient id="paint2_linear" x1="-1928.95" y1="780.491" x2="1030.58" y2="-50.2531" gradientUnits="userSpaceOnUse">
<stop stop-color="white" stop-opacity="0"/>
<stop offset="1" stop-color="white"/>
</linearGradient>
</defs>
</svg>
