<svg width="1440" height="436" viewBox="0 0 1440 436" fill="none" xmlns="http://www.w3.org/2000/svg">
<mask id="mask0" mask-type="alpha" maskUnits="userSpaceOnUse" x="0" y="0" width="1440" height="436">
<rect width="1440" height="436" fill="#1A364E"/>
</mask>
<g mask="url(#mask0)">
<rect width="1440" height="916" fill="#1A364E"/>
<mask id="mask1" mask-type="alpha" maskUnits="userSpaceOnUse" x="0" y="0" width="1440" height="916">
<rect width="1440" height="916" fill="#1A364E"/>
</mask>
<g mask="url(#mask1)">
<path opacity="0.4" fill-rule="evenodd" clip-rule="evenodd" d="M-390 576.463L-329 515.2C-268 455.138 -146 333.814 -24 333.814C98 333.814 220 455.138 342 515.2C464 576.463 586 576.463 708 515.2C830 455.138 952 333.814 1074 282.161C1196 230.508 1318 247.325 1379 255.734L1440 265.344V921.315H1379C1318 921.315 1196 921.315 1074 921.315C952 921.315 830 921.315 708 921.315C586 921.315 464 921.315 342 921.315C220 921.315 98 921.315 -24 921.315C-146 921.315 -268 921.315 -329 921.315H-390V576.463Z" fill="url(#paint0_linear)"/>
<path opacity="0.5" d="M0 469.516L62.5 440.588C125 412.227 250 354.938 375 354.938C500 354.938 625 412.227 750 440.588C875 469.516 1000 469.516 1125 440.588C1250 412.227 1375 354.938 1500 330.547C1625 306.156 1750 314.098 1812.5 318.068L1875 322.606" stroke="url(#paint1_linear)" stroke-opacity="0.2" stroke-width="2"/>
<path opacity="0.5" d="M-426 669.725L-363.8 575.051C-301.6 482.233 -177.2 294.74 -52.8 294.74C71.6 294.74 196 482.233 320.4 575.051C444.8 669.725 569.2 669.725 693.6 575.051C818 482.233 942.4 294.74 1066.8 214.916C1191.2 135.093 1315.6 161.082 1377.8 174.076L1440 188.927" stroke="url(#paint2_linear)" stroke-opacity="0.2" stroke-width="2"/>
</g>
</g>
<defs>
<linearGradient id="paint0_linear" x1="525" y1="246.275" x2="525" y2="921.315" gradientUnits="userSpaceOnUse">
<stop stop-color="#2C4C68"/>
<stop offset="1" stop-color="#1A364E" stop-opacity="0"/>
</linearGradient>
<linearGradient id="paint1_linear" x1="-545.573" y1="746.423" x2="1977.65" y2="-568.176" gradientUnits="userSpaceOnUse">
<stop stop-color="white"/>
<stop offset="1" stop-color="white" stop-opacity="0"/>
</linearGradient>
<linearGradient id="paint2_linear" x1="-968.954" y1="1575.96" x2="2145.6" y2="1082.53" gradientUnits="userSpaceOnUse">
<stop stop-color="white" stop-opacity="0"/>
<stop offset="1" stop-color="white"/>
</linearGradient>
</defs>
</svg>
